<?xml version="1.0" standalone="no"?>
<!DOCTYPE svg PUBLIC "-//W3C//DTD SVG 1.1//EN" "http://www.w3.org/Graphics/SVG/1.1/DTD/svg11.dtd" >
<svg>
<metadata>
Created by FontForge 20120731 at Mon Apr 18 10:43:47 2016
 By www
Copyright (c) 2011 by Aviation Partners. All rights reserved.
</metadata>
<defs>
<font id="AutocodeW01-Regular" horiz-adv-x="600" >
  <font-face 
    font-family="AutocodeW01-Regular"
    font-weight="550"
    font-stretch="normal"
    units-per-em="1000"
    panose-1="2 0 5 0 2 0 0 2 0 4"
    ascent="800"
    descent="-200"
    x-height="546"
    cap-height="758"
    bbox="-3 -278 600 1036"
    underline-thickness="50"
    underline-position="-125"
    unicode-range="U+0020-2122"
  />
<missing-glyph 
d="M497 0h-394v758h394v-758z" />
    <glyph glyph-name=".notdef" 
d="M497 0h-394v758h394v-758z" />
    <glyph glyph-name=".null" horiz-adv-x="0" 
 />
    <glyph glyph-name="nonmarkingreturn" horiz-adv-x="333" 
 />
    <glyph glyph-name="space" unicode=" " horiz-adv-x="580" 
 />
    <glyph glyph-name="exclam" unicode="!" 
d="M260 758h80v-583h-80v583zM246 89h110v-110h-110v110z" />
    <glyph glyph-name="quotedbl" unicode="&#x22;" 
d="M241 788v-300h-80v300h80zM359 788h80v-300h-80v300z" />
    <glyph glyph-name="numbersign" unicode="#" 
d="M548 362h-65l-35 -195h100v-80h-114l-27 -153l-79 13l25 140h-169l-27 -153l-79 13l24 140h-50v80h65l34 195h-99v80h113l20 113l7 40l79 -14l-25 -139h169l21 113l6 40l79 -14l-24 -139h51v-80zM367 167l34 195h-169l-34 -195h169z" />
    <glyph glyph-name="dollar" unicode="$" 
d="M466 391q41 -20 62 -50q25 -35 25 -85q0 -112 -78 -160q-46 -29 -127 -35v-115h-80v115q-52 3 -105 13t-109 22l16 78q64 -14 123.5 -24t114.5 -10q86 0 125 24q13 8 26.5 27.5t13.5 64.5q0 43 -41 63q-26 12 -60 18.5t-69 11.5q-38 5 -75.5 12.5t-69.5 21.5
q-37 17 -59 47q-24 33 -24 79q0 108 73 154q44 28 120 34v115h80v-115q54 -4 105 -13.5t98 -19.5l-18 -78q-52 11 -109 21.5t-116 10.5q-48 0 -78 -7.5t-46.5 -21.5t-22.5 -34t-6 -46q0 -20 8.5 -32t28.5 -21q23 -11 55.5 -17t66.5 -11q40 -6 79.5 -13.5t72.5 -23.5z" />
    <glyph glyph-name="percent" unicode="%" 
d="M382 345q21 19 44.5 23.5t41.5 4.5q17 0 41 -4.5t44 -23.5q22 -19 33 -49.5t13 -75.5q0 -7 0.5 -17.5t0.5 -21.5q0 -10 -0.5 -21t-0.5 -17q-2 -45 -13 -75.5t-33 -49.5q-20 -19 -44 -23.5t-41 -4.5q-18 0 -41.5 4.5t-44.5 23.5q-42 38 -45 125q-1 6 -1 17v21v21.5t1 17.5
q3 87 45 125zM422 62q15 -12 46 -12t45 12q23 21 26 83q0 6 0.5 16.5t0.5 19.5q0 10 -0.5 20t-0.5 17q-3 62 -26 82q-13 13 -45 13t-46 -13q-23 -20 -25 -82q-1 -5 -1 -16v-21v-20.5t1 -15.5q1 -61 25 -83zM47 740q20 19 44 23.5t41 4.5q18 0 41.5 -4.5t44.5 -23.5
q42 -38 45 -125q1 -7 1 -17.5v-21.5v-21t-1 -17q-3 -87 -45 -125q-21 -19 -44.5 -23.5t-41.5 -4.5q-17 0 -41 4.5t-44 23.5q-22 19 -33 49.5t-13 75.5q0 6 -0.5 17t-0.5 21q0 11 0.5 21.5t0.5 17.5q2 45 13 75.5t33 49.5zM87 457q13 -12 45 -12q31 0 46 12q24 22 25 83
q1 6 1 16.5v19.5v20.5t-1 16.5q-1 61 -25 83q-15 12 -46 12q-32 0 -45 -12q-23 -21 -26 -83q0 -6 -0.5 -16.5t-0.5 -20.5q0 -9 0.5 -19.5t0.5 -16.5q3 -62 26 -83zM494 777l52 -30l-445 -771l-52 30z" />
    <glyph glyph-name="ampersand" unicode="&#x26;" 
d="M576 349h-76v-308l-1 -37q-9 -1 -17 -2q-7 -1 -12.5 -1h-6.5h-3q-51 -5 -84 -8t-47 -3q-43 0 -88.5 5t-83.5 25q-81 42 -90 152q0 4 -0.5 16.5t-0.5 25.5t0.5 26t0.5 16q2 23 8 44t16 39q19 32 53 54q-51 42 -57 122q0 5 -0.5 16.5t-0.5 22.5q0 12 0.5 24.5t0.5 16.5
q8 103 86 144q35 19 78.5 24t84.5 5q16 0 37.5 -2.5t42 -5.5t36 -6t19.5 -3l39 -8l-15 -78l-39 7q-9 1 -25 4t-33.5 5.5t-34 4.5t-27.5 2q-32 0 -67 -3t-59 -16q-14 -8 -27 -24.5t-16 -55.5q0 -3 -0.5 -13.5t-0.5 -21.5q0 -9 0.5 -19.5t0.5 -14.5q2 -34 13 -49t21 -21
q31 -21 97 -21h122v112h80v-112h76v-80zM420 349h-122q-48 0 -77 -9t-45 -23.5t-22 -32t-7 -34.5q0 -3 -0.5 -14t-0.5 -22t0.5 -22.5t0.5 -14.5q2 -31 12 -51.5t31 -33t55 -17.5t84 -5q5 0 24 1t67 6v272z" />
    <glyph glyph-name="quotesingle" unicode="'" 
d="M340 788v-300h-80v300h80z" />
    <glyph glyph-name="parenleft" unicode="(" 
d="M527 763v-80h-40q-38 0 -64 -11t-46 -35q-57 -70 -63 -257q0 -17 -0.5 -44.5t-0.5 -52.5q0 -26 0.5 -53t0.5 -44q6 -188 63 -261q20 -26 46 -38t64 -12h40v-80h-40q-49 0 -91 17q-50 20 -82 64q-73 93 -80 307q0 17 -0.5 45.5t-0.5 54.5t0.5 54t0.5 45q7 214 81 305
q61 76 172 76h40z" />
    <glyph glyph-name="parenright" unicode=")" 
d="M113 763q111 0 172 -76q74 -91 81 -305q0 -17 0.5 -45t0.5 -54t-0.5 -54.5t-0.5 -45.5q-7 -214 -80 -307q-32 -44 -82 -64q-42 -17 -91 -17h-40v80h40q38 0 64 12t46 38q57 73 63 261q0 17 0.5 44t0.5 53q0 25 -0.5 52.5t-0.5 44.5q-6 187 -63 257q-20 24 -46 35t-64 11
h-40v80h40v0z" />
    <glyph glyph-name="asterisk" unicode="*" 
d="M516 642l-136 -79l136 -78l-40 -69l-136 78v-157h-80v157l-136 -78l-40 69l136 78l-136 79l40 69l136 -78v156h80v-156l101 58l35 20l40 -69v0z" />
    <glyph glyph-name="plus" unicode="+" 
d="M564 304v-80h-224v-224h-80v224h-225v80h225v224h80v-224h224v0z" />
    <glyph glyph-name="comma" unicode="," 
d="M385 74v-40q0 -45 -2.5 -79.5t-11 -64t-25.5 -56t-47 -56.5l-29 -28l-56 56l28 29q22 21 34.5 39.5t19 40t8 50t1.5 69.5v40h80z" />
    <glyph glyph-name="hyphen" unicode="-" 
d="M424 306h40v-80h-328v80h288v0z" />
    <glyph glyph-name="period" unicode="." 
d="M245 89h110v-110h-110v110z" />
    <glyph glyph-name="slash" unicode="/" 
d="M412 731l13 38l75 -28l-325 -895l-76 27l313 858v0z" />
    <glyph glyph-name="zero" unicode="0" 
d="M540 461q1 -14 1.5 -37.5t0.5 -44.5q0 -22 -0.5 -45.5t-1.5 -37.5q-3 -91 -23.5 -152.5t-58.5 -99.5q-19 -18 -39.5 -28.5t-41 -16.5t-40 -7.5t-37.5 -1.5q-36 0 -78 9t-80 45q-38 38 -58.5 99.5t-23.5 152.5q-1 14 -1.5 37.5t-0.5 45.5q0 21 0.5 44.5t1.5 37.5
q6 179 82 252q32 32 80 46q33 9 78 9q23 0 42 -2t36 -7q48 -14 80 -46q76 -73 82 -252zM140 458q-1 -14 -1.5 -36.5t-0.5 -42.5q0 -21 0.5 -43.5t1.5 -36.5v-11.5t1 -11.5l289 289l13 14q-14 51 -41 77q-17 17 -41.5 24.5t-60.5 7.5q-37 0 -61 -7.5t-41 -24.5
q-53 -52 -58 -198zM460 299q1 14 1.5 36.5t0.5 43.5q0 20 -0.5 42.5t-1.5 36.5q0 6 -0.5 12t-0.5 11l-303 -302q15 -52 42 -77q17 -17 41 -24.5t61 -7.5q36 0 60.5 7.5t41.5 24.5q52 50 58 197z" />
    <glyph glyph-name="one" unicode="1" 
d="M400 758v-758h-80v678h-214v80h254h40z" />
    <glyph glyph-name="two" unicode="2" 
d="M108 733q47 14 94 24.5t100 10.5q48 0 96.5 -9t83.5 -45q27 -28 39 -73q9 -33 9 -77v-10t-1 -10q-3 -98 -79 -144q-30 -19 -65.5 -28t-70.5 -16q-34 -7 -63.5 -15t-51.5 -22q-14 -9 -27.5 -28.5t-13.5 -62.5v-148h368v-80h-448v228q0 108 77 158q32 21 68.5 30.5
t74.5 17.5q32 6 60.5 13.5t49.5 20.5q15 9 27 25.5t14 53.5q4 80 -25 111q-15 16 -44.5 23t-77.5 7q-45 0 -87 -9.5t-84 -21.5l-38 -12l-23 77l38 11v0z" />
    <glyph glyph-name="three" unicode="3" 
d="M524 256q1 -5 1.5 -18t0.5 -24q0 -13 -0.5 -26t-1.5 -17q-7 -108 -91 -152q-38 -20 -85 -24.5t-90 -4.5q-16 0 -51.5 1t-88.5 5l-40 2l5 80l40 -2q48 -4 83.5 -5t51.5 -1q35 0 73.5 3.5t64.5 17.5q16 8 30.5 25.5t18.5 60.5q0 3 0.5 14.5t0.5 22.5q0 10 -0.5 21t-0.5 15
q-4 53 -43 76q-38 23 -113 23h-155v80h146q71 0 106 22q35 20 38 69q1 4 1.5 14.5t0.5 20.5t-0.5 20.5t-1.5 13.5q-2 19 -6 33t-10 23t-13.5 14.5t-14.5 9.5q-25 13 -61 16t-68 3q-11 0 -28.5 -2t-35.5 -4.5t-34 -5t-25 -4.5l-39 -7l-15 79l39 7q4 1 20 3.5t37 5.5t43 5.5
t38 2.5q42 0 85.5 -4.5t80.5 -23.5q79 -40 87 -145q0 -4 1 -16t1 -24q0 -11 -0.5 -23t-1.5 -17q-5 -78 -60 -121q18 -11 31.5 -24.5t24.5 -30.5q21 -36 24 -83z" />
    <glyph glyph-name="four" unicode="4" 
d="M542 306v-80h-89v-226h-80v226h-345v56l298 476h127v-452h89zM373 683q-29 -47 -63 -101.5t-66.5 -106.5t-60.5 -96.5t-46 -72.5h236v377z" />
    <glyph glyph-name="five" unicode="5" 
d="M474 758v-80h-309v-211h122q99 0 156 -38q73 -49 79 -150q1 -3 1.5 -17.5t0.5 -28.5t-0.5 -28t-1.5 -18q-3 -58 -26 -100t-63 -64q-39 -22 -85.5 -27.5t-91.5 -5.5q-16 0 -51.5 1t-88.5 5l-40 3l6 80l39 -3q48 -3 83.5 -4.5t51.5 -1.5q51 0 86 6t56.5 20t31.5 37.5
t13 58.5q0 5 0.5 17.5t0.5 23.5q0 12 -0.5 24.5t-0.5 16.5q-5 62 -44 88q-37 25 -112 25h-202v371h349h40z" />
    <glyph glyph-name="six" unicode="6" 
d="M532 302q1 -8 1.5 -22.5t0.5 -27.5q0 -14 -0.5 -28.5t-1.5 -22.5q-6 -118 -81 -172q-57 -39 -151 -39t-151 39q-75 52 -81 172q-1 8 -1.5 22.5t-0.5 28.5v4v43q0 53 1 111t9.5 113t27 103.5t53.5 83.5q57 58 151 58q45 0 91.5 -10t78.5 -22l37 -15l-28 -74l-38 14
q-26 11 -66 19t-75 8q-60 0 -95 -35q-43 -43 -58 -149l-2 -14l-2 -14q56 37 149 37q94 0 151 -39q75 -54 81 -172zM452 205q1 14 1.5 26t0.5 21q0 8 -0.5 20t-1.5 26q-4 80 -47 111q-36 24 -105 24t-105 -24q-43 -31 -47 -111q-1 -12 -1.5 -23.5t-0.5 -19.5v-4q0 -8 0.5 -20
t1.5 -26q4 -80 47 -111q36 -24 105 -24t105 24q43 31 47 111z" />
    <glyph glyph-name="seven" unicode="7" 
d="M538 704l-285 -704h-87q14 33 37.5 91t51.5 126.5t57.5 141.5t55.5 137.5t45.5 113t27.5 68.5h-379v80h476v-54z" />
    <glyph glyph-name="eight" unicode="8" 
d="M533 253q2 -11 2 -20.5v-19.5q0 -11 -0.5 -21.5t-1.5 -19.5q-5 -57 -27 -96t-58 -59q-34 -19 -73 -23t-75 -4t-75 4t-73 23q-38 21 -59 59q-21 39 -27 96q-1 9 -1 19.5v21.5v19.5t1 20.5q8 93 78 139q-59 45 -66 127q-1 10 -1 19v18v20t2 19q5 55 25 90q20 38 56 57
q32 18 68.5 22t71.5 4q34 0 71 -4t69 -22q18 -10 31.5 -24.5t24.5 -32.5q21 -38 25 -90q1 -9 1.5 -19t0.5 -20q0 -9 -0.5 -18t-1.5 -19q-6 -82 -66 -127q70 -46 78 -139zM158 587q-1 -7 -1 -15v-16v-15.5t1 -15.5q4 -53 44 -75q35 -20 98 -20t98 20q40 22 44 75
q0 8 0.5 15.5t0.5 15.5t-0.5 16t-0.5 15q-2 22 -7 37t-10.5 24.5t-12 15t-11.5 8.5q-18 10 -43 13t-58 3t-58.5 -3t-42.5 -13q-11 -6 -24 -23.5t-17 -61.5zM454 179q1 8 1 16.5v17.5v16t-1 17q-6 59 -48 82q-37 22 -106 22t-106 -22q-44 -24 -48 -82q-1 -9 -1 -17v-16v-17.5
t1 -16.5q3 -37 14 -58.5t29.5 -33t46 -14.5t64.5 -3q36 0 63.5 3t46 14.5t29.5 33t15 58.5z" />
    <glyph glyph-name="nine" unicode="9" 
d="M534 507v-27.5t-1 -21.5q0 -53 -1 -111t-9.5 -112.5t-27 -103t-52.5 -83.5q-58 -58 -151 -58q-45 0 -91.5 10t-78.5 22l-37 15l28 74l38 -14q13 -5 30 -10t35.5 -8.5t38 -6t37.5 -2.5q60 0 94 35q44 43 59 149q1 7 1.5 14t1.5 15q-54 -38 -148 -38t-151 39
q-75 52 -81 172q-1 8 -1.5 22.5t-0.5 28.5q0 13 0.5 27.5t1.5 22.5q3 61 27 106q22 40 61 67q58 38 144 38t144 -38q39 -27 61 -67q24 -45 27 -106q1 -8 1.5 -22t0.5 -28zM405 350q43 29 47 110q1 6 1.5 18.5t0.5 24.5v4q0 12 -0.5 26t-1.5 20q-4 77 -52 110
q-24 16 -51.5 20.5t-48.5 4.5t-49 -4.5t-51 -20.5q-49 -34 -52 -110q-1 -6 -1.5 -20t-0.5 -26q0 -13 0.5 -26.5t1.5 -20.5q4 -81 47 -110q35 -25 105 -25t105 25z" />
    <glyph glyph-name="colon" unicode=":" 
d="M246 89h110v-110h-110v110zM246 546h110v-110h-110v110z" />
    <glyph glyph-name="semicolon" unicode=";" 
d="M346 74v-40q0 -45 -2.5 -79.5t-11 -64t-25.5 -56t-47 -56.5l-29 -28l-56 56l28 29q22 21 34.5 39.5t19 40t8 50t1.5 69.5v40h80zM246 546h110v-110h-110v110z" />
    <glyph glyph-name="less" unicode="&#x3c;" 
d="M577 489q-95 -49 -180 -93q-36 -19 -74 -38t-73 -37t-65 -32.5t-50 -24.5q20 -10 50 -24.5t65 -32.5t73 -37t74 -38q85 -44 180 -93l-34 -72l-495 250v94l495 250l34 -72v0z" />
    <glyph glyph-name="equal" unicode="=" 
d="M564 420v-80h-529v80h489h40zM524 188h40v-80h-529v80h489z" />
    <glyph glyph-name="greater" unicode="&#x3e;" 
d="M56 561l495 -250v-94l-495 -250l-34 72q95 49 180 93q36 19 74 38t73 37t64.5 32.5t50.5 24.5q-21 10 -50.5 24.5t-64.5 32.5t-73 37t-74 38q-85 44 -180 93z" />
    <glyph glyph-name="question" unicode="?" 
d="M300 768q26 0 52.5 -2t52 -8t48.5 -17t41 -30q52 -55 48 -168q-5 -95 -64 -141q-26 -20 -55 -29t-58 -17q-26 -6 -48 -13.5t-38 -20.5q-11 -8 -21.5 -28t-10.5 -65v-54h-80v54q0 104 61 155q26 21 57 31.5t60 18.5q25 6 46.5 13t37.5 18q10 8 20.5 25.5t12.5 56.5
q3 79 -25 108q-17 17 -49.5 25t-87.5 8q-48 0 -93.5 -9.5t-91.5 -22.5l-38 -10l-21 77l38 11q50 14 100 24t106 10zM153 89h110v-110h-110v110z" />
    <glyph glyph-name="at" unicode="@" 
d="M229 464q13 2 32.5 4t33.5 2q56 0 88 -38q36 -42 39 -130q0 -11 0.5 -20.5t0.5 -17.5v-199h-146q-46 0 -73 35q-25 33 -25 89t25 90q27 35 73 35h64q-2 32 -8 46.5t-11 19.5q-3 4 -9 7t-18 3q-5 0 -18.5 -1t-36.5 -4l-40 -6l-10 80zM260 139q1 -2 3 -3.5t8 -1.5h82v111
h-82q-6 0 -8 -1.5t-3 -3.5q-3 -3 -7.5 -14t-4.5 -37q0 -25 4.5 -36t7.5 -14zM300 660q68 0 124 -33q52 -31 90 -89q34 -54 52 -124q17 -71 17 -148q0 -92 -29 -174l-13 -38l-76 27l14 37q24 69 24 148q0 69 -14.5 127.5t-42.5 101.5q-54 85 -146 85t-147 -85
q-27 -43 -41.5 -101.5t-14.5 -127.5t14.5 -127.5t41.5 -101.5q56 -85 147 -85h40v-80h-40q-69 0 -124 33q-52 31 -90 89q-33 51 -52 125q-17 70 -17 147t17 148q19 73 52 124q38 58 90 89q55 33 124 33z" />
    <glyph glyph-name="A" unicode="A" 
d="M592 0h-84q-15 51 -32.5 108.5t-35.5 117.5h-282q-18 -60 -35.5 -117.5t-32.5 -108.5h-83l227 758h130zM416 306q-18 60 -35.5 117.5t-32.5 108.5t-27.5 93t-21.5 70q-9 -28 -21.5 -70t-27.5 -93t-32.5 -108.5t-35.5 -117.5h234z" />
    <glyph glyph-name="B" unicode="B" 
d="M532 256q1 -5 1.5 -18t0.5 -24q0 -13 -0.5 -26t-1.5 -17q-8 -108 -90 -151q-38 -20 -84.5 -25t-90.5 -5q-17 0 -59 1.5t-91 4.5l-37 2v762l37 2q47 3 86.5 4.5t56.5 1.5q42 0 85.5 -5t79.5 -24q79 -40 87 -145q1 -4 1.5 -16t0.5 -24q0 -11 -0.5 -23t-1.5 -17
q-2 -38 -17.5 -68.5t-41.5 -51.5q35 -21 55 -55q21 -36 24 -83zM160 429h129q69 0 105 21q35 22 39 70q0 3 0.5 13.5t0.5 20.5q0 11 -0.5 21.5t-0.5 12.5q-3 40 -16.5 56.5t-27.5 23.5q-26 13 -61.5 16.5t-67.5 3.5q-10 0 -37 -1t-63 -3v-255zM453 177q0 3 0.5 14.5
t0.5 22.5q0 10 -0.5 21t-0.5 15q-2 17 -7.5 34.5t-22 32t-46.5 23.5t-79 9h-138v-276q36 -2 65 -2.5t42 -0.5q35 0 73 3.5t65 17.5q15 7 29.5 25t18.5 61z" />
    <glyph glyph-name="C" unicode="C" 
d="M539 0l-20 -1q-48 -5 -87 -7t-62 -2q-129 0 -203 59q-46 37 -73 99q-26 62 -31 153q-1 13 -2 35.5t-1 42.5q0 21 1 43t2 36q2 45 9.5 83t21.5 70q14 30 32 55t41 43q74 59 203 59q22 0 60 -2t89 -7l20 -1l-7 -80l-20 2q-48 4 -85 6t-57 2q-52 0 -89 -10t-64 -31
q-31 -25 -49 -67q-22 -50 -25 -126q-1 -13 -2 -34t-1 -41q0 -19 1 -40t2 -34q3 -76 25 -126q18 -42 49 -67q52 -42 153 -42q21 0 58.5 2t83.5 6l20 2z" />
    <glyph glyph-name="D" unicode="D" 
d="M247 758q61 0 102 -10q56 -12 98 -44q46 -33 74 -95q13 -31 21 -69t10 -83q1 -13 1.5 -35.5t0.5 -42.5q0 -21 -0.5 -43t-1.5 -36q-4 -88 -32 -152q-26 -60 -73 -95q-23 -18 -49 -28.5t-52 -16t-51.5 -7t-47.5 -1.5h-167v758h40h127zM160 678v-598h87q54 0 90 8.5t62 28.5
q66 50 73 187q1 13 1.5 34t0.5 41q0 19 -0.5 40.5t-1.5 33.5q-7 138 -73 188q-26 19 -62 28t-90 9h-87z" />
    <glyph glyph-name="E" unicode="E" 
d="M526 80v-80h-440v758h440v-80h-360v-249h285v-80h-285v-269h360z" />
    <glyph glyph-name="F" unicode="F" 
d="M170 678v-249h291v-80h-291v-349h-80v758h451v-80h-371z" />
    <glyph glyph-name="G" unicode="G" 
d="M161 709q71 59 194 59q20 0 54 -2t88 -7l40 -3l-7 -80l-40 4q-52 5 -85 6.5t-50 1.5q-48 0 -82.5 -10t-59.5 -30q-31 -27 -47 -68q-21 -49 -24 -126q-1 -13 -1.5 -34t-0.5 -41q0 -19 0.5 -40.5t1.5 -33.5q3 -77 24 -126q16 -41 47 -68q48 -41 142 -41q15 0 39.5 1.5
t58.5 3.5v241h80v-314l-36 -3q-101 -9 -142 -9q-122 0 -194 60q-45 37 -69 98q-27 63 -30 153q-1 13 -1.5 35.5t-0.5 42.5q0 21 0.5 43t1.5 36q3 89 30 152q24 61 69 99z" />
    <glyph glyph-name="H" unicode="H" 
d="M450 758h80v-758h-80v349h-298v-349h-80v758h80v-329h298v329v0z" />
    <glyph glyph-name="I" unicode="I" 
d="M525 678h-185v-598h185v-80h-450v80h185v598h-185v80h450v-80v0z" />
    <glyph glyph-name="J" unicode="J" 
d="M479 758v-551q0 -11 -0.5 -22.5t-0.5 -18.5q-5 -96 -61 -142q-43 -34 -115 -34q-34 0 -67.5 5.5t-60.5 12t-45 12t-19 5.5l-38 14l27 75l37 -13l15.5 -5t39.5 -10.5t53 -10.5t58 -5q45 0 65 17q28 21 31 83q1 11 1 20.5v16.5v471h-286v80h366z" />
    <glyph glyph-name="K" unicode="K" 
d="M80 0v758h80v-348l316 348h108q-21 -23 -51.5 -56.5t-64.5 -71.5t-69.5 -76.5t-65.5 -72t-52.5 -58.5t-30.5 -34q9 -10 32.5 -36.5t56 -62.5t70 -77.5t73.5 -81.5t67 -74.5t51 -56.5h-108l-332 368v-368h-80z" />
    <glyph glyph-name="L" unicode="L" 
d="M176 758v-678h380v-80h-460v758h80z" />
    <glyph glyph-name="M" unicode="M" 
d="M450 0v634q-20 -64 -40 -126.5t-36 -113.5q-18 -59 -36 -112h-76q-18 53 -36 112q-16 51 -36 113.5t-40 126.5v-634h-80v758h125q13 -40 27 -84.5l28 -89t27 -85.5t23 -73q10 32 23 73t27 85.5t28.5 89t26.5 84.5h125v-758h-80z" />
    <glyph glyph-name="N" unicode="N" 
d="M202 758q23 -59 53.5 -138.5t63 -163.5t64 -165.5t56.5 -145.5v613h80v-758h-109q-14 37 -33.5 86.5t-41.5 106t-45 117t-46 119.5t-44.5 114t-38.5 101v-644h-80v758h121v0z" />
    <glyph glyph-name="O" unicode="O" 
d="M142 705q58 63 158 63q99 0 159 -63q37 -38 56 -98q21 -61 24 -150q1 -14 1.5 -36t0.5 -42q0 -21 -0.5 -43t-1.5 -35q-3 -88 -24 -151q-19 -58 -56 -98q-60 -62 -159 -62t-158 62q-37 40 -57 98q-21 63 -24 151q-1 13 -1.5 35t-0.5 43q0 20 0.5 42t1.5 36q3 89 24 150
t57 98zM200 108q35 -38 100 -38q64 0 101 38q54 57 58 196q1 12 1.5 33.5t0.5 41.5t-0.5 41t-1.5 34q-4 139 -58 196q-19 19 -43.5 28.5t-57.5 9.5q-64 0 -100 -38q-54 -56 -59 -196q-1 -11 -1.5 -33t-0.5 -42t0.5 -42.5t1.5 -32.5q5 -140 59 -196z" />
    <glyph glyph-name="P" unicode="P" 
d="M123 760q24 2 52 3.5t53.5 2.5t44.5 1.5t27 0.5q39 0 81 -7t77 -33q69 -51 76 -177q1 -5 1.5 -20t0.5 -31q0 -15 -1 -30.5t-1 -20.5q-6 -108 -66 -160q-53 -45 -141 -45h-161v-244h-80v757zM300 688q-6 0 -20 -0.5t-32 -1t-39.5 -1.5t-42.5 -2v-359h161q59 0 88 26
q36 31 39 104q1 5 1.5 19t0.5 27q0 14 -0.5 28t-1.5 19q-4 88 -44 117q-17 13 -42.5 18.5t-67.5 5.5z" />
    <glyph glyph-name="Q" unicode="Q" 
d="M459 52q-10 -10 -21 -18t-22 -15l113 -199l-70 -39l-121 212q-18 -3 -38 -3q-99 0 -158 62q-37 40 -57 98q-21 63 -24 151q-1 13 -1.5 35t-0.5 43q0 20 0.5 42t1.5 36q3 89 24 150t57 98q58 63 158 63q99 0 159 -63q37 -38 56 -98q21 -61 24 -150q1 -14 1.5 -36t0.5 -42
q0 -21 -0.5 -43t-1.5 -35q-3 -88 -24 -151q-19 -58 -56 -98zM200 108q35 -38 100 -38q64 0 101 38q54 57 58 196q1 13 1.5 34t0.5 41t-0.5 41t-1.5 34q-4 139 -58 196q-19 19 -43.5 28.5t-57.5 9.5q-64 0 -100 -38q-54 -56 -59 -196q-1 -13 -1.5 -34t-0.5 -41t0.5 -41.5
t1.5 -33.5q5 -140 59 -196z" />
    <glyph glyph-name="R" unicode="R" 
d="M160 0h-80v758l37 3q24 2 52 3.5t53.5 2t44.5 1t27 0.5q39 0 80.5 -6.5t76.5 -30.5q70 -49 77 -168q1 -5 1.5 -19.5t0.5 -28.5q0 -15 -1 -30t-1 -18q-6 -103 -67 -153q-25 -20 -58 -31l161 -283h-92l-155 272h-157v-272zM160 352h161q59 0 89 24q35 29 38 95q1 5 1.5 18
t0.5 26q0 12 -0.5 25t-1.5 18q-2 30 -7.5 50t-12 32t-13 17.5t-10.5 8.5q-17 11 -43 16.5t-68 5.5q-6 0 -20 -0.5t-32 -1t-39.5 -1.5t-42.5 -2v-331z" />
    <glyph glyph-name="S" unicode="S" 
d="M73 111l14 -4q57 -15 107 -26t98 -11q86 0 127 30q48 34 48 125q0 34 -13 58q-5 10 -13 17.5t-19 14.5q-25 14 -58.5 22t-68.5 15q-39 7 -77 16t-70 27q-80 47 -80 147q0 125 76 182q30 23 70 33.5t96 10.5q61 0 114.5 -12t104.5 -26l-22 -78q-47 14 -95.5 25t-101.5 11
q-81 0 -118 -28q-44 -32 -44 -118q0 -36 12.5 -52.5t27.5 -24.5q23 -14 54.5 -21t66.5 -14q41 -8 80.5 -17.5t73.5 -29.5q84 -50 84 -158q0 -131 -80 -190q-32 -23 -74 -34t-101 -11q-57 0 -112 12t-113 27l-14 4z" />
    <glyph glyph-name="T" unicode="T" 
d="M566 758v-80h-226v-678h-80v678h-227v80h533v0z" />
    <glyph glyph-name="U" unicode="U" 
d="M531 758v-442q0 -17 -0.5 -36t-1.5 -30q-6 -149 -77 -211q-18 -17 -38.5 -26.5t-40.5 -14.5t-39 -6.5t-35 -1.5t-35 1.5t-39 6.5t-40.5 14.5t-38.5 26.5q-71 62 -77 211q0 11 -0.5 30t-0.5 36v442h80v-442v-34.5t1 -28.5q5 -114 50 -155q17 -14 41 -21t59 -7q68 0 100 28
q45 41 50 155q1 19 1.5 35t0.5 28v442h80z" />
    <glyph glyph-name="V" unicode="V" 
d="M361 0h-122l-220 758h83q16 -55 34.5 -118t37 -128t37.5 -129t35.5 -121.5t30.5 -105t23 -79.5q9 32 23 79.5t30.5 105t35 121.5t37.5 129t37 128t34 118h83z" />
    <glyph glyph-name="W" unicode="W" 
d="M516 0h-133q-10 42 -21 89t-22 95t-21.5 94t-19.5 85q-9 -39 -19.5 -85t-21.5 -94t-22 -95t-21 -89h-132l-72 758h80q6 -67 14.5 -153t17 -176.5t16.5 -178.5t15 -159q18 78 36.5 159t34.5 148q18 78 35 151h78q17 -73 35 -151q15 -67 34 -148t37 -159q7 75 15.5 166.5
t17.5 182.5t16.5 174.5t13.5 143.5h81z" />
    <glyph glyph-name="X" unicode="X" 
d="M346 400l235 -400h-93l-189 321l-189 -321h-92l235 400l-210 358h92l164 -279l164 279h93l-210 -358v0z" />
    <glyph glyph-name="Y" unicode="Y" 
d="M577 758l-237 -454v-304h-80v304l-237 454h90q28 -54 57 -109t54.5 -103.5t45 -86.5t30.5 -59q11 22 31.5 61t46 87.5t54 102.5t55.5 107h90z" />
    <glyph glyph-name="Z" unicode="Z" 
d="M42 58q24 37 60 92t76.5 117t82.5 126t79 120.5t65.5 100t42.5 64.5h-406v80h516v-58q-24 -37 -60 -92t-77 -117t-83 -126t-79 -120.5t-65.5 -100.5t-41.5 -64h406v-80h-516v58z" />
    <glyph glyph-name="bracketleft" unicode="[" 
d="M500 763v-80h-200v-808h200v-80h-280v968h240h40z" />
    <glyph glyph-name="backslash" unicode="\" 
d="M500 -127l-76 -27l-325 895l75 28l13 -38z" />
    <glyph glyph-name="bracketright" unicode="]" 
d="M380 763v-968h-280v80h200v808h-200v80h40h240z" />
    <glyph glyph-name="asciicircum" unicode="^" 
d="M336 688l245 -542l-73 -33q-45 99 -85 188q-17 38 -35 77.5t-34.5 75.5t-30.5 67.5t-23 52.5q-10 -21 -24 -52.5t-30.5 -67.5t-34.5 -75.5t-35 -77.5q-40 -89 -84 -188l-73 33l244 542h73z" />
    <glyph glyph-name="underscore" unicode="_" 
d="M590 -51v-80h-580v80h580z" />
    <glyph glyph-name="grave" unicode="`" 
d="M165 732l51 61l158 -133l-51 -61z" />
    <glyph glyph-name="a" unicode="a" 
d="M522 67q0 -1 4 -6t9 -10l12 -14l-61 -52l-25 31q-3 2 -15 22t-21 60q-7 -6 -13.5 -12t-14.5 -11q-43 -36 -79 -56q-51 -30 -86 -30q-69 0 -116 47t-47 129q0 50 16 80t33 45q44 38 114 38h184q0 86 -44 121q-36 27 -103 27q-16 0 -48.5 -2t-74.5 -6l-40 -4l-8 79l40 4
q45 5 79 7t52 2q96 0 151 -43q76 -58 76 -186v-145q0 -31 4 -52.5t9 -35.5q5 -17 13 -27zM346 136q23 18 41 35t29 28v49h-184q-14 0 -31 -3.5t-30 -14.5q-22 -21 -22 -65q0 -49 24 -73q14 -14 30 -18.5t29 -4.5q2 0 9 1.5t20.5 8.5t34 20t50.5 37z" />
    <glyph glyph-name="b" unicode="b" 
d="M177 788v-245q26 5 55.5 9t61.5 4q99 0 156 -48q69 -57 75 -173q0 -5 1 -22t1 -34t-1 -34t-1 -22q-9 -137 -85 -191q-38 -28 -85.5 -35t-90.5 -7q-16 0 -49 2t-82 7l-36 3v786h80zM181 463q-1 -1 -2 -1h-2v-387q32 -2 54 -3.5t33 -1.5q49 0 79 6.5t50 20.5q22 15 34 43
q15 35 18 88q1 5 1.5 21t0.5 30t-0.5 30t-1.5 21q-5 83 -46 117q-35 29 -105 29q-30 0 -58 -4t-55 -9z" />
    <glyph glyph-name="c" unicode="c" 
d="M152 512q53 44 148 44q29 0 59 -2.5t54 -5.5t39.5 -5.5t17.5 -2.5l39 -6l-13 -79l-40 7l-14.5 2t-37 5t-50 5t-54.5 2q-66 0 -99 -26q-42 -35 -47 -125q0 -9 -0.5 -23.5t-0.5 -28.5t0.5 -32t0.5 -26q3 -83 40 -118q27 -27 79 -27q47 0 94.5 9t101.5 22l39 10l19 -78
l-39 -10q-55 -13 -108.5 -23t-106.5 -10q-85 0 -135 49q-60 58 -64 173q-1 11 -1 22v39q0 15 0.5 30.5t0.5 25.5q6 128 78 183z" />
    <glyph glyph-name="d" unicode="d" 
d="M552 37l-60 -51l-26 30q-2 2 -12 18t-19 47q-6 -5 -11.5 -9t-11.5 -9q-94 -73 -149 -73q-59 0 -95 21t-56.5 55t-28.5 75t-10 82q0 5 -0.5 22t-0.5 34t0.5 34t0.5 21q7 117 75 174q57 48 156 48q32 0 61.5 -4t55.5 -9v245h80v-606q0 -30 4 -52t9 -35.5t9 -20.5l4 -7l-1 1
zM421 462h-4q-26 5 -54.5 9.5t-58.5 4.5q-69 0 -105 -30q-42 -35 -46 -116q0 -5 -0.5 -21t-0.5 -30q0 -15 0.5 -30.5t0.5 -20.5q6 -95 33 -129q8 -10 24.5 -19.5t52.5 -9.5q2 0 8 1.5t18 6.5t30 16t43 31q19 15 34.5 28.5t24.5 22.5v286z" />
    <glyph glyph-name="e" unicode="e" 
d="M152 512q53 44 148 44q94 0 148 -44q70 -55 78 -183v-41v-40h-373q0 -11 0.5 -20.5t0.5 -12.5q4 -84 40 -118q28 -27 79 -27q47 0 94.5 9t101.5 22l39 10l19 -78l-39 -9q-55 -14 -108.5 -24t-106.5 -10q-85 0 -134 49q-59 58 -65 172v10t-0.5 16t-0.5 19v18
q0 14 0.5 29.5t0.5 25.5q6 128 78 183zM201 450q-41 -32 -47 -122h291q-5 89 -47 122q-32 26 -98 26t-99 -26z" />
    <glyph glyph-name="f" unicode="f" 
d="M536 546v-80h-252v-466h-80v466h-120v80h120q0 4 0.5 13.5t0.5 19.5t0.5 18t0.5 11q5 106 64 153q46 37 124 37q15 0 42.5 -2t62.5 -5l40 -4l-7 -79l-40 3q-39 4 -63.5 5.5t-34.5 1.5q-51 0 -74 -19q-30 -25 -35 -94v-12.5v-18t-0.5 -17.5t-0.5 -11h252z" />
    <glyph glyph-name="g" unicode="g" 
d="M526 479q-2 -2 -4 -6q-2 -3 -4 -7t-4 -10l-4 -12q14 -39 14 -86q0 -28 -4.5 -53t-15.5 -45q-20 -40 -57 -64q-54 -35 -148 -35q-26 0 -48.5 2.5t-42.5 8.5q-14 -9 -28.5 -23.5t-16.5 -37.5q-1 -8 1 -12t5 -7q2 -2 8.5 -6.5t19.5 -9t33.5 -7.5t51.5 -2q89 1 143 -15
q74 -21 92 -78q15 -42 1 -88q-17 -53 -63 -81q-38 -24 -95 -30q-32 -4 -64.5 -3t-58.5 3q-21 2 -48 4t-50 6l13 79q30 -5 91 -9q23 -2 52 -3t56 2q25 3 41.5 9t26.5 13.5t15 16t7 16.5q7 19 0 40q-4 16 -39 27q-44 12 -119 11q-29 -1 -53.5 2t-45.5 8q-50 14 -74 41
q-31 35 -27 81q6 53 47 94q-23 19 -36 48q-21 40 -21 97t21 99q20 40 57 64q56 35 148 35t148 -35q3 -3 7 -5q7 11 10 14l26 31l61 -52q-7 -9 -12 -15q-2 -3 -4.5 -5.5l-4.5 -4.5q-3 -3 -4 -5zM432 295q12 25 12 63q0 39 -12 63q-10 20 -29 32q-33 23 -104 23t-105 -23
q-19 -12 -29 -32q-12 -24 -12 -63q0 -67 41 -94q34 -23 105 -23q70 0 104 22q18 11 29 32z" />
    <glyph glyph-name="h" unicode="h" 
d="M463 503q50 -55 50 -156v-347h-80v347q0 72 -29 102q-24 27 -71 27q-5 0 -13.5 -2t-21.5 -8.5t-31 -19.5t-42 -35q-20 -18 -35 -34.5t-24 -27.5v-26v-323h-80v788h80v-323q1 2 2 2.5t2 1.5q93 87 163 87q83 0 130 -53z" />
    <glyph glyph-name="i" unicode="i" 
d="M512 80v-80h-392v80h172v386h-204v80h284v-466h140zM277 793h110v-110h-110v110z" />
    <glyph glyph-name="j" unicode="j" 
d="M446 546v-534q0 -12 -0.5 -24.5t-0.5 -20.5q-5 -105 -65 -152q-46 -37 -124 -37q-14 0 -42 2t-63 5l-40 4l8 79l40 -3q39 -4 63 -5.5t34 -1.5q51 0 74 19q32 26 35 94q1 12 1 22.5v18.5v454h-223v80h263h40zM351 793h110v-110h-110v110z" />
    <glyph glyph-name="k" unicode="k" 
d="M456 0l-269 269v-269h-80v788h80v-514l272 272h113l-274 -275l271 -271h-113z" />
    <glyph glyph-name="l" unicode="l" 
d="M512 80v-80h-392v80h172v628h-204v80h284v-708h140z" />
    <glyph glyph-name="m" unicode="m" 
d="M260 363q0 56 -11 89q-8 18 -15 21t-13 3q-13 0 -25.5 -15t-23.5 -33q-12 -21 -24 -47v-381h-80v363q0 30 -4 52.5t-9 37t-9 22l-4 7.5l-24 31l62 49l25 -31q2 -2 7.5 -10.5t12.5 -25.5q26 32 48 46.5t48 14.5q10 0 22.5 -2.5t26 -9.5t26.5 -20t23 -34q29 41 53.5 53.5
t43.5 12.5q61 0 93 -52q26 -46 26 -128v-376h-80v376q0 38 -5 58t-10 29q-5 7 -10 10t-14 3q-11 0 -24.5 -14.5t-24.5 -31.5q-13 -20 -27 -45v-385h-80v363z" />
    <glyph glyph-name="n" unicode="n" 
d="M465 503q50 -55 50 -156v-347h-80v347q0 70 -30 102q-24 27 -71 27q-4 0 -12.5 -2t-21.5 -8.5t-31.5 -19.5t-42.5 -35q-19 -18 -34.5 -34.5t-24.5 -27.5v-26v-323h-80v363q0 31 -4 53.5t-9 36.5q-6 17 -13 28q-1 1 -4 5.5t-8 10.5t-12 15l62 50l25 -31q2 -3 13 -21.5
t20 -54.5l14 14q93 87 163 87q83 0 131 -53z" />
    <glyph glyph-name="o" unicode="o" 
d="M151 512q54 44 149 44q94 0 148 -44q71 -56 77 -183q1 -10 1.5 -25.5t0.5 -29.5q0 -15 -0.5 -30.5t-1.5 -25.5q-6 -127 -77 -184q-54 -44 -148 -44q-95 0 -149 44q-71 57 -77 184q-1 10 -1.5 25.5t-0.5 30.5q0 14 0.5 30t1.5 25q6 127 77 183zM201 97q34 -27 99 -27
t98 27q43 34 48 125q0 9 0.5 23.5t0.5 28.5q0 13 -0.5 27.5t-0.5 23.5q-5 91 -48 125q-32 26 -98 26t-99 -26q-42 -35 -47 -125q0 -7 -1 -22t-1 -29t1 -29t1 -23q5 -90 47 -125z" />
    <glyph glyph-name="p" unicode="p" 
d="M526 323q1 -5 1.5 -22t0.5 -34t-0.5 -34t-1.5 -21q-6 -117 -74 -174q-59 -48 -157 -48q-32 0 -61.5 4t-55.5 9v-215h-80v576q0 30 -4 52.5t-9 36.5q-6 17 -13 28q-1 1 -4 5.5t-8 10.5t-12 15l61 50l25 -31q2 -2 9 -13t15 -32q5 4 11 8l12 8q85 54 155 54q59 0 95 -21
t56.5 -55t28.5 -75.5t10 -81.5zM446 216q1 5 1.5 21t0.5 30t-0.5 30t-1.5 21q-4 92 -32 129q-8 10 -24.5 19.5t-53.5 9.5q-21 0 -43.5 -8t-43.5 -19t-39.5 -24.5t-31.5 -23.5v-317h4q27 -5 55 -9.5t58 -4.5q70 0 105 30q41 34 46 116z" />
    <glyph glyph-name="q" unicode="q" 
d="M163 514q39 28 85.5 35t90.5 7q16 0 49.5 -1.5t81.5 -6.5l37 -3v-757h-80v215q-26 -5 -55.5 -9t-62.5 -4q-98 0 -156 49q-67 55 -75 173q0 4 -0.5 21t-0.5 34t0.5 34t0.5 22q9 136 85 191zM204 100q36 -30 105 -30q31 0 59 4.5t55 9.5h1q2 0 3 1v387q-32 2 -54.5 3
t-33.5 1q-48 0 -78.5 -6.5t-50.5 -20.5q-21 -15 -33 -43q-8 -17 -12.5 -39t-6.5 -49q0 -5 -0.5 -21t-0.5 -30t0.5 -30t0.5 -21q4 -81 46 -116z" />
    <glyph glyph-name="r" unicode="r" 
d="M459 347q0 70 -30 102q-24 27 -71 27q-4 0 -12.5 -2t-21.5 -8.5t-31.5 -19.5t-42.5 -35q-19 -18 -34.5 -34.5t-24.5 -27.5v-26v-323h-80v363q0 31 -4 53.5t-9 36.5q-6 17 -13 28q-1 1 -4 5.5t-8 10.5t-12 15l62 50l25 -31q2 -3 13 -21.5t20 -54.5l14 14q93 87 163 87
q83 0 131 -53q50 -55 50 -156h-80z" />
    <glyph glyph-name="s" unicode="s" 
d="M172 522q50 34 139 34q50 0 94 -8t86 -18l17 -4l-18 -78l-17 4q-38 9 -78.5 16.5t-83.5 7.5q-65 0 -96 -21q-10 -7 -20.5 -20.5t-10.5 -43.5q0 -8 4.5 -18t24.5 -21q19 -10 45.5 -17t54.5 -14q33 -8 66 -17t60 -24q33 -17 52 -44q22 -31 22 -73q0 -91 -70 -137
q-56 -36 -147 -36q-47 0 -92.5 8t-93.5 19l-23 5l16 78l24 -5q47 -10 88 -17.5t81 -7.5q68 0 103 23q34 22 34 70q0 14 -6 25t-26 22t-48.5 18.5t-57.5 14.5q-32 8 -63 16.5t-57 22.5q-33 17 -49 41q-22 29 -22 68q0 88 68 131z" />
    <glyph glyph-name="t" unicode="t" 
d="M557 38l-38 -11q-2 -1 -22 -7t-48.5 -12.5t-61 -12t-58.5 -5.5q-70 0 -113 42q-50 47 -53 142q-1 5 -1.5 21t-0.5 29v242h-119v80h119v129h80v-129h267v-80h-267v-242q0 -11 0.5 -26t0.5 -21q3 -63 30 -88q19 -19 57 -19q18 0 42 4t48 9t44.5 11t32.5 9l38 12z" />
    <glyph glyph-name="u" unicode="u" 
d="M538 65q0 -1 4 -6t9 -10q5 -7 12 -15l-62 -50l-25 31q-2 2 -12 17.5t-18 46.5l-10 -8l-10 -8q-92 -73 -161 -73q-83 0 -130 52q-50 56 -50 157v347h80v-347q0 -71 29 -103q24 -26 71 -26q20 0 48.5 14.5t61.5 40.5q19 14 33.5 27.5t23.5 22.5v47v324h80v-364q0 -31 4 -53
t9 -36q5 -17 13 -28z" />
    <glyph glyph-name="v" unicode="v" 
d="M55 546h84q18 -50 40 -113.5t44.5 -128t42.5 -122t34 -95.5q14 41 35.5 101.5t44 125.5t44 126.5t36.5 105.5h85l-191 -546h-108z" />
    <glyph glyph-name="w" unicode="w" 
d="M495 0h-117q-8 27 -18 58.5t-20.5 64.5t-20.5 65t-19 61q-9 -29 -19 -61t-20.5 -65t-20.5 -64.5t-19 -58.5h-116l-72 546h81q6 -44 13 -99.5t15 -115t15.5 -117.5t13.5 -106q16 51 32.5 101t29.5 92q15 48 29 93h76q14 -45 29 -93q13 -42 29 -92t32 -101q6 48 14 106
t16 117.5t15 115t13 99.5h80z" />
    <glyph glyph-name="x" unicode="x" 
d="M544 0h-96l-148 217l-148 -217h-97l196 288l-175 258h97l127 -187l127 187h97q-20 -29 -45 -65.5t-49.5 -73t-46.5 -68.5t-35 -51z" />
    <glyph glyph-name="y" unicode="y" 
d="M202 -212l74 212h-38l-190 546h84l168 -479l167 479h85l-265 -758h-85z" />
    <glyph glyph-name="z" unicode="z" 
d="M518 498q-19 -26 -46 -61.5t-57 -76t-61.5 -82.5t-59.5 -79.5t-51.5 -69t-37.5 -49.5h313v-80h-437v48q19 26 46 61.5t57 76t61.5 82.5t60 79.5t51.5 68.5t37 50h-313v80h437v-48z" />
    <glyph glyph-name="braceleft" unicode="{" 
d="M499 763v-80h-40q-22 0 -50 -3t-49 -14q-12 -7 -24.5 -21.5t-14.5 -49.5q0 -5 -0.5 -15t-0.5 -19v-113q0 -11 -0.5 -22t-1.5 -17q-3 -49 -24 -85q-8 -12 -17.5 -23t-21.5 -19q25 -18 39 -43q21 -36 24 -84q1 -7 1.5 -18t0.5 -22v-113q0 -9 0.5 -19t0.5 -15
q3 -36 15.5 -51.5t24.5 -22.5q32 -19 98 -19h40v-80h-40q-86 0 -138 30q-36 20 -55 53q-21 36 -24 85q-1 6 -1.5 17t-0.5 22v113q0 9 -0.5 19t-0.5 15q-3 36 -16 51.5t-24 22.5q-32 19 -98 19v80q65 0 98 18q11 7 24 22.5t16 51.5q0 5 0.5 15t0.5 19v113q0 11 0.5 22t1.5 18
q3 49 24 83q21 33 56 53q33 17 69.5 21.5t67.5 4.5h40z" />
    <glyph glyph-name="bar" unicode="|" 
d="M260 789h80v-1053h-80v1053v0z" />
    <glyph glyph-name="braceright" unicode="}" 
d="M141 763q31 0 67.5 -4.5t69.5 -21.5q35 -20 56 -53q21 -34 24 -83q1 -7 1.5 -18t0.5 -22v-113q0 -9 0.5 -19t0.5 -15q3 -36 16 -51.5t24 -22.5q33 -18 98 -18v-80q-66 0 -98 -19q-11 -7 -24 -22.5t-16 -51.5q0 -5 -0.5 -15t-0.5 -19v-113q0 -11 -0.5 -22t-1.5 -17
q-3 -49 -24 -85q-19 -33 -55 -53q-53 -30 -138 -30h-40v80h40q66 0 98 19q12 7 24.5 22.5t15.5 51.5q0 5 0.5 15t0.5 19v113q0 11 0.5 22t1.5 18q3 48 24 84q14 25 39 43q-12 8 -21.5 19t-17.5 23q-21 36 -24 85q-1 6 -1.5 17t-0.5 22v113q0 9 -0.5 19t-0.5 15
q-2 35 -14.5 49.5t-24.5 21.5q-21 11 -49 14t-50 3h-40v80h40v0z" />
    <glyph glyph-name="asciitilde" unicode="~" 
d="M96 453q17 30 42.5 45.5t54.5 15.5q43 0 83 -31q15 -12 28 -26.5t25 -28.5q24 -28 41.5 -43.5t36.5 -15.5q15 0 28 22q8 13 12.5 31t4.5 36v40h80v-40q0 -29 -7.5 -57t-20.5 -51q-18 -29 -43 -45t-54 -16q-46 0 -84 32q-16 12 -29 26.5t-26 28.5q-23 27 -40 42.5
t-35 15.5q-9 0 -17 -7.5t-14 -19.5t-10 -28t-4 -34v-40h-80v40q0 61 28 108z" />
    <glyph glyph-name="uni00A0" unicode="&#xa0;" horiz-adv-x="580" 
 />
    <glyph glyph-name="exclamdown" unicode="&#xa1;" 
d="M261 -212v583h80v-583h-80zM355 457h-110v110h110v-110z" />
    <glyph glyph-name="cent" unicode="&#xa2;" 
d="M396 66q-22 -2 -42 -3t-37 -2v-115h-80v116q-56 6 -94 30q-70 46 -76 144q0 8 -0.5 19.5t-0.5 22.5t0.5 22.5t0.5 18.5q6 100 76 144q38 24 94 30v116h80v-115q17 -1 36.5 -2t42.5 -3l40 -3l-6 -80l-40 3q-38 3 -68 4.5t-45 1.5q-62 0 -91 -19q-11 -8 -24 -25t-15 -57
q0 -5 -0.5 -15.5t-0.5 -20.5t0.5 -21t0.5 -16q5 -60 39 -82q29 -19 91 -19q13 0 41 1t72 5l40 3l6 -80z" />
    <glyph glyph-name="sterling" unicode="&#xa3;" 
d="M555 80v-80h-442v339h-68v80h68v131q0 11 1 23t1 19q5 52 27 89q23 35 60 56q56 31 150 31q19 0 55 -2t83 -5l40 -2l-5 -80l-40 2q-45 3 -80.5 5t-52.5 2q-74 0 -111 -21q-14 -8 -28.5 -25t-17.5 -55q-1 -11 -1.5 -20.5t-0.5 -16.5v-131h329v-80h-329v-259h362z" />
    <glyph glyph-name="currency" unicode="&#xa4;" 
d="M531 264q0 -36 -11 -70t-31 -63l76 -76l-56 -56l-77 76q-59 -42 -132 -42q-74 0 -133 42l-76 -76l-57 56l76 76q-41 59 -41 133t41 133l-76 76l57 57l76 -77q57 42 133 42q36 0 69.5 -10.5t62.5 -31.5l48 48l29 29l56 -57l-76 -76q20 -29 31 -63t11 -70zM193 157
q44 -44 107 -44q30 0 57.5 11.5t48.5 32.5q45 45 45 107t-45 107q-21 22 -48.5 33t-57.5 11q-31 0 -58.5 -11t-48.5 -33q-44 -44 -44 -107q0 -30 11 -57.5t33 -49.5z" />
    <glyph glyph-name="yen" unicode="&#xa5;" 
d="M382 419h157v-80h-199v-339h-80v339h-210v80h167l-203 339h93q23 -39 51.5 -86t55.5 -92t50 -83.5t36 -59.5q14 23 38 63.5t52 86.5t55 92t47 79h94z" />
    <glyph glyph-name="brokenbar" unicode="&#xa6;" 
d="M340 159v-423h-80v423h80v0zM260 789h80v-423h-80v423z" />
    <glyph glyph-name="section" unicode="&#xa7;" 
d="M433 175q64 -46 64 -125q0 -91 -53 -142t-148 -51q-43 0 -85 9.5t-86 21.5l-22 6l21 77l22 -6q42 -11 78.5 -19.5t71.5 -8.5q20 0 44.5 4.5t43.5 20.5q33 28 33 88q0 39 -30 59q-18 13 -42.5 21.5t-48.5 15.5l-4 1q-29 9 -57.5 19t-53.5 26q-62 42 -62 118q0 85 82 146
q-6 3 -11.5 6.5t-11.5 7.5q-59 42 -59 115q0 95 59 143q49 40 131 40q48 0 89 -9.5t78 -20.5l15 -4l-22 -77l-15 4q-35 11 -71 19t-74 8q-18 0 -41 -4t-40 -18q-29 -23 -29 -81q0 -16 5.5 -27.5t18.5 -21t34 -18t52 -17.5l6 -2q30 -9 60 -19.5t56 -27.5q66 -45 66 -127
q0 -52 -32 -93q-18 -25 -50 -46q5 -3 9 -5.5t9 -5.5zM226 259q16 -11 37.5 -18.5t45.5 -14.5q9 2 23.5 7.5t31.5 14.5q20 12 30.5 23.5t15.5 22t6 19t1 12.5q0 20 -7 34t-21.5 24.5t-36.5 19.5t-53 18q-11 -5 -27.5 -14t-33 -23t-28 -32.5t-11.5 -41.5q0 -18 6.5 -29.5
t20.5 -21.5z" />
    <glyph glyph-name="dieresis" unicode="&#xa8;" 
d="M249 648h-110v110h110v-110zM460 648h-110v110h110v-110z" />
    <glyph glyph-name="copyright" unicode="&#xa9;" 
d="M181 704q55 29 119 29t119 -29q53 -30 88 -79q35 -48 53 -111t18 -135t-18 -134.5t-53 -110.5q-36 -51 -88 -80q-55 -29 -119 -29t-119 29q-52 29 -88 80q-35 48 -53 110.5t-18 134.5t18 135t53 111q35 49 88 79zM158 180q9 -13 22 -26t30.5 -24t40 -18t49.5 -7t49.5 7
t39.5 18t30.5 24t22.5 26q27 38 41.5 89t14.5 110t-14.5 110t-41.5 89q-9 13 -22.5 26t-30.5 24t-39.5 18t-49.5 7t-49.5 -7t-40 -18t-30.5 -24t-22 -26q-27 -38 -41.5 -89t-14.5 -110t14.5 -110t41.5 -89zM305 564q12 0 31 -2t31 -4l40 -5l-10 -79l-40 5q-21 2 -34 3.5
t-18 1.5q-12 0 -17.5 -3t-8.5 -6q-5 -5 -10.5 -19t-6.5 -46q-1 -9 -1 -17v-14v-13t1 -17q1 -32 6.5 -46.5t10.5 -19.5q3 -3 8.5 -5.5t17.5 -2.5q6 0 19.5 1t32.5 3l40 5l10 -79l-40 -5q-20 -2 -36 -3.5t-26 -1.5q-54 0 -85 33q-35 38 -38 118q-1 6 -1 15.5v17.5v18.5t1 15.5
q3 81 39 117q32 34 84 34z" />
    <glyph glyph-name="ordfeminine" unicode="&#xaa;" 
d="M496 480l-47 -54l-27 24q-2 2 -12 14t-18 35q-5 -4 -11 -7t-12 -7q-82 -51 -130 -51q-27 0 -50.5 7t-41.5 21q-21 16 -32 39t-11 50q0 58 45 87q35 23 90 23h142q-2 22 -11 32.5t-18 16.5q-30 16 -84 16q-13 0 -39 -1.5t-60 -3.5l-36 -3l-5 72l36 2q35 3 62.5 4.5
t41.5 1.5q74 0 120 -26q11 -6 23 -16.5t21.5 -25.5t15.5 -35t6 -47v-87q0 -31 8 -44t8 -14zM239 506q10 0 27.5 7t37.5 17.5t40.5 23.5t37.5 25v10h-143q-34 0 -50 -11q-5 -3 -9 -9t-4 -18q0 -20 15 -32q16 -13 48 -13z" />
    <glyph glyph-name="guillemotleft" unicode="&#xab;" 
d="M560 420q-35 -44 -65 -83q-26 -33 -50.5 -65t-35.5 -45q10 -14 32 -46t45 -65q26 -39 58 -83l-65 -46l-169 242l162 209l25 31zM226 469l63 -49q-35 -44 -65 -83q-26 -33 -50.5 -65t-34.5 -45q4 -7 12.5 -19t19 -27t22 -32t23.5 -33q27 -39 58 -83l-66 -46l-169 242
l163 209z" />
    <glyph glyph-name="logicalnot" unicode="&#xac;" 
d="M553 420v-312h-80v232h-427v80h467h40z" />
    <glyph glyph-name="uni00AD" unicode="&#xad;" 
d="M424 306h40v-80h-328v80h288v0z" />
    <glyph glyph-name="registered" unicode="&#xae;" 
d="M477 651q36 -36 55 -81.5t19 -96.5t-19 -96.5t-55 -80.5q-35 -35 -80.5 -54.5t-96.5 -19.5t-96.5 19.5t-81.5 54.5q-35 35 -54 80.5t-19 96.5t19 96.5t54 81.5q36 35 81.5 54t96.5 19t96.5 -19t80.5 -54zM428 334q28 26 44.5 61.5t16.5 77.5q0 39 -15 73.5t-40.5 60
t-60 40.5t-73.5 15t-73.5 -15t-60 -40.5t-40.5 -60t-15 -73.5t15 -73.5t40.5 -60t60 -40.5t73.5 -15t76 16l-66 116h-33v-84h-62v270l28 2q17 2 35.5 2.5t23.5 0.5q14 0 30 -2.5t30 -12.5q30 -19 33 -66q0 -2 0.5 -6.5t0.5 -9.5t-0.5 -10t-0.5 -6q-2 -23 -9.5 -36.5
t-15.5 -21.5zM310 478q14 0 18 4q3 2 4 7t1 8q0 2 0.5 5.5t0.5 7.5q0 3 -0.5 7t-0.5 5q0 15 -6 19t-25 4q-3 0 -10 -0.5t-15 -0.5v-66h33z" />
    <glyph glyph-name="macron" unicode="&#xaf;" 
d="M377 736h40v-80h-235v80h195v0z" />
    <glyph glyph-name="degree" unicode="&#xb0;" 
d="M143 611q0 32 12.5 60.5t33.5 50t49.5 34t61.5 12.5q32 0 60.5 -12.5t49.5 -34t33.5 -50t12.5 -60.5t-12.5 -60.5t-33.5 -49.5t-49.5 -33.5t-60.5 -12.5q-33 0 -61.5 12.5t-49.5 33.5t-33.5 49.5t-12.5 60.5zM215 611q0 -17 6.5 -32.5t18 -27t27 -18t33.5 -6.5
q35 0 59.5 24.5t24.5 59.5q0 18 -6.5 33.5t-18 27t-27 18t-32.5 6.5q-35 0 -60 -25t-25 -60z" />
    <glyph glyph-name="plusminus" unicode="&#xb1;" 
d="M340 453h224v-80h-224v-200h-80v200h-225v80h225v201h80v-201zM35 0v80h529v-80h-529z" />
    <glyph glyph-name="uni00B2" unicode="&#xb2;" 
d="M152 906q36 8 72 14t77 6q44 0 85 -7.5t68 -35.5q30 -32 30 -86q0 -8 -1 -13q-1 -22 -14.5 -49t-53.5 -44q-23 -11 -50.5 -16t-55.5 -9q-25 -4 -49 -8.5t-41 -12.5q-14 -7 -19.5 -15t-5.5 -22v-70h287v-72h-359v142q0 12 2.5 26t10 27.5t20 26t33.5 22.5q25 12 53.5 17
t57.5 10q31 4 52 8.5t34.5 10t19.5 13.5t7 19q1 25 -4 34t-7 11q-6 7 -17.5 11t-25.5 6t-29 3t-28 1q-35 0 -68 -5.5t-66 -12.5l-36 -8l-15 71l36 7v0z" />
    <glyph glyph-name="uni00B3" unicode="&#xb3;" 
d="M475 625q0 -2 0.5 -10t0.5 -16t-0.5 -15.5t-0.5 -10.5q-8 -70 -76 -97q-29 -11 -63.5 -13.5t-67.5 -2.5q-11 0 -38 0.5t-67 2.5l-36 2l4 72l36 -2q35 -2 62 -2.5t39 -0.5q45 0 71.5 4t40 10.5t18 15.5t5.5 19q0 2 0.5 7.5t0.5 10.5t-0.5 11t-0.5 8q-1 8 -5.5 16t-19.5 15
q-29 13 -86 13h-123v72h116q53 0 80 12q14 7 18 14t5 14q0 2 0.5 7.5t0.5 10.5t-0.5 10t-0.5 7q-1 9 -5 17t-17 14.5t-37 10t-66 3.5q-9 0 -22 -1t-26.5 -2.5t-25.5 -3t-19 -2.5l-36 -5l-10 71l36 5q3 0 14.5 2t27.5 3.5t32.5 3t28.5 1.5q31 0 64 -2.5t60 -13.5
q66 -26 72 -94q1 -2 1.5 -9t0.5 -15t-0.5 -15.5t-1.5 -9.5q-1 -14 -7.5 -31.5t-22.5 -32.5q25 -17 34.5 -38.5t11.5 -39.5z" />
    <glyph glyph-name="acute" unicode="&#xb4;" 
d="M276 599l-51 61l158 133l51 -61z" />
    <glyph glyph-name="mu" unicode="&#xb5;" 
d="M513 542v-483v-31l-51 -13q-38 -10 -81 -18.5t-91 -8.5q-74 0 -124 35v-301h-80v820h80v-345q0 -129 124 -129q37 0 72.5 7t70.5 15v452h80z" />
    <glyph glyph-name="mu" unicode="&#x3bc;" 
d="M513 542v-483v-31l-51 -13q-38 -10 -81 -18.5t-91 -8.5q-74 0 -124 35v-301h-80v820h80v-345q0 -129 124 -129q37 0 72.5 7t70.5 15v452h80z" />
    <glyph glyph-name="paragraph" unicode="&#xb6;" 
d="M550 768v-911h-80v831h-87v-831h-80v509h-52q-42 0 -78.5 16t-63.5 43t-43 63.5t-16 78.5t16 78.5t43 63.5t63.5 43t78.5 16h299zM303 688h-52q-25 0 -47 -9.5t-38.5 -26t-26 -38.5t-9.5 -47t9.5 -47t26 -38.5t38.5 -26t47 -9.5h52v242z" />
    <glyph glyph-name="periodcentered" unicode="&#xb7;" 
d="M245 297h110v-110h-110v110z" />
    <glyph glyph-name="cedilla" unicode="&#xb8;" 
d="M353 0q-3 -11 -5.5 -21l-4.5 -18q21 -15 33 -37q16 -26 16 -58q0 -17 -4 -30q-11 -39 -42 -62.5t-69 -23.5q-8 0 -15.5 1t-15.5 3l-39 10l21 78l38 -11q15 -4 28 4t17 22q3 15 -4 27q-8 14 -22 17l-38 10l23 89h83z" />
    <glyph glyph-name="uni00B9" unicode="&#xb9;" 
d="M417 919v-453h-72v381h-162v72h198h36z" />
    <glyph glyph-name="ordmasculine" unicode="&#xba;" 
d="M183 769q43 26 117 26q75 0 118 -26q61 -36 67 -121q0 -7 0.5 -16.5t0.5 -17.5t-0.5 -17.5t-0.5 -16.5q-3 -42 -21 -74q-16 -29 -46 -48q-43 -26 -118 -26t-117 26q-31 18 -47 48q-17 30 -20 74q-1 5 -1.5 15t-0.5 19t0.5 19t1.5 15q5 84 67 121zM220 520q26 -16 80 -16
q55 0 80 16q10 6 20.5 19.5t12.5 44.5q1 9 1 17v13v13t-1 17q-2 31 -12.5 44.5t-19.5 19.5q-27 15 -81 15q-53 0 -80 -15q-10 -6 -20 -19.5t-12 -44.5q-1 -5 -1.5 -13.5t-0.5 -16.5t0.5 -16.5t1.5 -13.5q2 -31 12.5 -44.5t19.5 -19.5z" />
    <glyph glyph-name="guillemotright" unicode="&#xbb;" 
d="M102 469l25 -31l162 -209l-169 -242l-65 46q31 44 58 83q11 16 22.5 33t22 32t19 27t13.5 19q-11 13 -35.5 45t-50.5 65q-30 39 -65 83zM560 229l-169 -242l-66 46q31 44 58 83q23 33 45 65t32 46q-11 13 -35 45t-50 65q-30 39 -65 83l63 49l24 -31z" />
    <glyph glyph-name="onequarter" unicode="&#xbc;" 
d="M165 758v-373h-60v313h-105v60h135h30zM496 770l52 -30l-445 -771l-52 30l430 745zM600 164v-60h-55v-104h-60v104h-176v45l156 224h80v-209h55zM485 296q-29 -42 -50.5 -72.5t-41.5 -59.5h92v132z" />
    <glyph glyph-name="onehalf" unicode="&#xbd;" 
d="M375 361q23 7 47.5 12t51.5 5q26 0 53.5 -5.5t46.5 -25.5q26 -26 26 -76v-9q-3 -52 -46 -77q-17 -9 -35 -13t-37 -8q-42 -8 -56 -16t-14 -31v-57h186v-60h-246v117q0 57 44 83q17 10 36 14.5t39 8.5q40 8 53.5 15t15.5 26q0 33 -9 42q-12 12 -57 12q-22 0 -42 -4.5
t-42 -10.5l-29 -7l-15 58zM464 770l52 -30l-445 -771l-52 30l430 745zM165 758v-373h-60v313h-105v60h135h30z" />
    <glyph glyph-name="threequarters" unicode="&#xbe;" 
d="M239 520q0 -2 0.5 -8t0.5 -12t-0.5 -12.5t-0.5 -8.5q-4 -56 -50 -79q-20 -10 -44 -12.5t-46 -2.5q-18 0 -69 3l-30 2l3 59l30 -1q23 -2 40.5 -2.5t25.5 -0.5q27 0 42.5 2.5t24 8t11 12.5t2.5 16q1 2 1 6.5v9.5v9.5t-1 6.5q0 4 -1.5 10t-7.5 11.5t-19 9.5t-37 4h-87v60h82
q20 0 31 3t16 6q5 2 9 7t5 16v15v14q-1 9 -3.5 15.5t-10 11t-22 7t-39.5 2.5q-9 0 -27.5 -2.5t-30.5 -4.5l-30 -5l-10 59l29 5q2 0 10 1.5t18.5 3t21.5 2.5t19 1q21 0 43.5 -2.5t42.5 -11.5q45 -23 48 -77q1 -2 1 -7.5v-11.5v-12t-1 -8q-1 -11 -5.5 -25.5t-15.5 -27.5
q17 -15 23.5 -33t7.5 -32zM510 770l52 -30l-445 -771l-52 30l430 745zM600 164v-60h-55v-104h-60v104h-176v45l156 224h80v-209h55zM485 296q-29 -42 -50.5 -72.5t-41.5 -59.5h92v132z" />
    <glyph glyph-name="questiondown" unicode="&#xbf;" 
d="M301 -222q-26 0 -52.5 2t-52 8t-48.5 17t-41 30q-52 55 -48 168q5 95 64 141q26 20 55 29t58 17q26 6 48 13.5t38 20.5q11 8 21.5 28t10.5 65v54h80v-54q0 -104 -61 -155q-26 -21 -57 -31.5t-60 -18.5q-25 -6 -46.5 -13t-37.5 -18q-10 -8 -20.5 -25.5t-12.5 -56.5
q-3 -79 25 -108q17 -17 49.5 -25t87.5 -8q48 0 93.5 9.5t91.5 22.5l38 10l21 -77l-38 -11q-50 -14 -100 -24t-106 -10zM448 457h-110v110h110v-110z" />
    <glyph glyph-name="Agrave" unicode="&#xc0;" 
d="M592 0h-84q-15 51 -32.5 108.5t-35.5 117.5h-282q-18 -60 -35.5 -117.5t-32.5 -108.5h-83l227 758h130zM416 306q-18 60 -35.5 117.5t-32.5 108.5t-27.5 93t-21.5 70q-9 -28 -21.5 -70t-27.5 -93t-32.5 -108.5t-35.5 -117.5h234zM165 944l51 61l158 -133l-51 -61z" />
    <glyph glyph-name="Aacute" unicode="&#xc1;" 
d="M592 0h-84q-15 51 -32.5 108.5t-35.5 117.5h-282q-18 -60 -35.5 -117.5t-32.5 -108.5h-83l227 758h130zM416 306q-18 60 -35.5 117.5t-32.5 108.5t-27.5 93t-21.5 70q-9 -28 -21.5 -70t-27.5 -93t-32.5 -108.5t-35.5 -117.5h234zM276 811l-51 61l158 133l51 -61z" />
    <glyph glyph-name="Acircumflex" unicode="&#xc2;" 
d="M592 0h-84q-15 51 -32.5 108.5t-35.5 117.5h-282q-18 -60 -35.5 -117.5t-32.5 -108.5h-83l227 758h130zM416 306q-18 60 -35.5 117.5t-32.5 108.5t-27.5 93t-21.5 70q-9 -28 -21.5 -70t-27.5 -93t-32.5 -108.5t-35.5 -117.5h234zM341 970l112 -94l-51 -61q-22 18 -41 34
l-34 28t-27 23q-11 -9 -28 -23l-34 -28q-19 -16 -40 -34l-52 61l112 94h83z" />
    <glyph glyph-name="Atilde" unicode="&#xc3;" 
d="M592 0h-84q-15 51 -32.5 108.5t-35.5 117.5h-282q-18 -60 -35.5 -117.5t-32.5 -108.5h-83l227 758h130zM416 306q-18 60 -35.5 117.5t-32.5 108.5t-27.5 93t-21.5 70q-9 -28 -21.5 -70t-27.5 -93t-32.5 -108.5t-35.5 -117.5h234zM274 939q48 43 110 26q20 -6 33 -14.5
t16 -10.5l30 -26l-50 -61q-8 7 -15 12q-6 5 -11 8.5t-5 4.5q-2 2 -6 4q-3 2 -7 3t-9 3q-17 4 -33 -9q-48 -43 -110 -26q-20 6 -33 14.5t-16 10.5l-31 26l51 61q8 -7 15 -12q6 -5 10.5 -9t5.5 -4q2 -2 6 -4q3 -2 6.5 -3.5t8.5 -2.5q19 -4 34 9z" />
    <glyph glyph-name="Adieresis" unicode="&#xc4;" 
d="M592 0h-84q-15 51 -32.5 108.5t-35.5 117.5h-282q-18 -60 -35.5 -117.5t-32.5 -108.5h-83l227 758h130zM416 306q-18 60 -35.5 117.5t-32.5 108.5t-27.5 93t-21.5 70q-9 -28 -21.5 -70t-27.5 -93t-32.5 -108.5t-35.5 -117.5h234zM249 860h-110v110h110v-110zM460 860
h-110v110h110v-110z" />
    <glyph glyph-name="Aring" unicode="&#xc5;" 
d="M592 0h-84q-15 51 -32.5 108.5t-35.5 117.5h-282q-18 -60 -35.5 -117.5t-32.5 -108.5h-83l227 758h130zM416 306q-18 60 -35.5 117.5t-32.5 108.5t-27.5 93t-21.5 70q-9 -28 -21.5 -70t-27.5 -93t-32.5 -108.5t-35.5 -117.5h234zM182 918q0 24 9.5 45.5t25.5 37.5
t37.5 25.5t45.5 9.5t45.5 -9.5t37.5 -25.5t25 -37.5t9 -45.5t-9 -45.5t-25 -37.5t-37.5 -25.5t-45.5 -9.5t-45.5 9.5t-37.5 25.5t-25.5 37.5t-9.5 45.5zM242 918q0 -24 17 -41t41 -17q23 0 40 17t17 41t-17 41t-40 17q-24 0 -41 -17t-17 -41z" />
    <glyph glyph-name="AE" unicode="&#xc6;" 
d="M571 678h-213l16 -249h157v-80h-152l18 -269h174v-80h-249q-4 50 -7.5 107t-7.5 119h-151q-16 -62 -31 -119t-29 -107h-83l203 758h355v-80zM302 306q-7 102 -13.5 199.5t-11.5 174.5q-20 -76 -46 -173.5t-53 -200.5h124z" />
    <glyph glyph-name="Ccedilla" unicode="&#xc7;" 
d="M539 0l-20 -1q-47 -5 -85 -7t-61 -2q-2 -8 -4 -15.5t-3 -13.5q21 -15 33 -37q16 -26 16 -58q0 -17 -4 -30q-11 -39 -42 -62.5t-69 -23.5q-8 0 -15.5 1t-15.5 3l-39 10l21 78l38 -11q15 -4 28 4t17 22q3 15 -4 27q-8 14 -22 17l-38 10l22 85q-73 12 -125 53q-46 37 -73 99
q-26 62 -31 153q-1 13 -2 35.5t-1 42.5q0 21 1 43t2 36q2 45 9.5 83t21.5 70q14 30 32 55t41 43q74 59 203 59q22 0 60 -2t89 -7l20 -1l-7 -80l-20 2q-48 4 -85 6t-57 2q-52 0 -89 -10t-64 -31q-31 -25 -49 -67q-22 -50 -25 -126q-1 -13 -2 -34t-1 -41q0 -19 1 -40t2 -34
q3 -76 25 -126q18 -42 49 -67q52 -42 153 -42q21 0 58.5 2t83.5 6l20 2z" />
    <glyph glyph-name="Egrave" unicode="&#xc8;" 
d="M526 80v-80h-440v758h440v-80h-360v-249h285v-80h-285v-269h360zM165 944l51 61l158 -133l-51 -61z" />
    <glyph glyph-name="Eacute" unicode="&#xc9;" 
d="M526 80v-80h-440v758h440v-80h-360v-249h285v-80h-285v-269h360zM276 811l-51 61l158 133l51 -61z" />
    <glyph glyph-name="Ecircumflex" unicode="&#xca;" 
d="M526 80v-80h-440v758h440v-80h-360v-249h285v-80h-285v-269h360zM341 970l112 -94l-51 -61q-22 18 -41 34l-34 28t-27 23q-11 -9 -28 -23l-34 -28q-19 -16 -40 -34l-52 61l112 94h83z" />
    <glyph glyph-name="Edieresis" unicode="&#xcb;" 
d="M526 80v-80h-440v758h440v-80h-360v-249h285v-80h-285v-269h360zM249 860h-110v110h110v-110zM460 860h-110v110h110v-110z" />
    <glyph glyph-name="Igrave" unicode="&#xcc;" 
d="M525 678h-185v-598h185v-80h-450v80h185v598h-185v80h450v-80zM165 944l51 61l158 -133l-51 -61z" />
    <glyph glyph-name="Iacute" unicode="&#xcd;" 
d="M525 678h-185v-598h185v-80h-450v80h185v598h-185v80h450v-80zM276 811l-51 61l158 133l51 -61z" />
    <glyph glyph-name="Icircumflex" unicode="&#xce;" 
d="M340 678v-598h185v-80h-450v80h185v598h-185v80h450v-80h-185zM341 970l112 -94l-51 -61q-22 18 -41 34l-34 28t-27 23q-11 -9 -28 -23l-34 -28q-19 -16 -40 -34l-52 61l112 94h83z" />
    <glyph glyph-name="Idieresis" unicode="&#xcf;" 
d="M525 678h-185v-598h185v-80h-450v80h185v598h-185v80h450v-80zM249 860h-110v110h110v-110zM460 860h-110v110h110v-110z" />
    <glyph glyph-name="Eth" unicode="&#xd0;" 
d="M247 758q61 0 102 -10q56 -12 98 -44q46 -33 74 -95q13 -31 21 -69t10 -83q1 -13 1.5 -35.5t0.5 -42.5q0 -21 -0.5 -43t-1.5 -36q-4 -88 -32 -152q-26 -60 -73 -95q-23 -18 -49 -28.5t-52 -16t-51.5 -7t-47.5 -1.5h-167v340h-70v80h70v338h167zM338 340h-178v-260h87
q54 0 90 8.5t62 28.5q66 50 73 187q1 13 1.5 34t0.5 41q0 19 -0.5 40.5t-1.5 33.5q-7 138 -73 188q-26 19 -62 28t-90 9h-87v-258h178v-80z" />
    <glyph glyph-name="Ntilde" unicode="&#xd1;" 
d="M202 758q23 -59 53.5 -138.5t63 -163.5t64 -165.5t56.5 -145.5v613h80v-758h-109q-14 37 -33.5 86.5t-41.5 106t-45 117t-46 119.5t-44.5 114t-38.5 101v-644h-80v758h121zM274 939q48 43 110 26q20 -6 33 -14.5t16 -10.5l30 -26l-50 -61q-8 7 -15 12q-6 5 -11 8.5
t-5 4.5q-2 2 -6 4q-3 2 -7 3t-9 3q-17 4 -33 -9q-48 -43 -110 -26q-20 6 -33 14.5t-16 10.5l-31 26l51 61q8 -7 15 -12q6 -5 10.5 -9t5.5 -4q2 -2 6 -4q3 -2 6.5 -3.5t8.5 -2.5q19 -4 34 9z" />
    <glyph glyph-name="Ograve" unicode="&#xd2;" 
d="M142 705q58 63 158 63q99 0 159 -63q37 -38 56 -98q21 -61 24 -150q1 -14 1.5 -36t0.5 -42q0 -21 -0.5 -43t-1.5 -35q-3 -88 -24 -151q-19 -58 -56 -98q-60 -62 -159 -62t-158 62q-37 40 -57 98q-21 63 -24 151q-1 13 -1.5 35t-0.5 43q0 20 0.5 42t1.5 36q3 89 24 150
t57 98zM200 108q35 -38 100 -38q64 0 101 38q54 57 58 196q1 12 1.5 33.5t0.5 41.5t-0.5 41t-1.5 34q-4 139 -58 196q-19 19 -43.5 28.5t-57.5 9.5q-64 0 -100 -38q-54 -56 -59 -196q-1 -11 -1.5 -33t-0.5 -42t0.5 -42.5t1.5 -32.5q5 -140 59 -196zM165 944l51 61l158 -133
l-51 -61z" />
    <glyph glyph-name="Oacute" unicode="&#xd3;" 
d="M142 705q58 63 158 63q99 0 159 -63q37 -38 56 -98q21 -61 24 -150q1 -14 1.5 -36t0.5 -42q0 -21 -0.5 -43t-1.5 -35q-3 -88 -24 -151q-19 -58 -56 -98q-60 -62 -159 -62t-158 62q-37 40 -57 98q-21 63 -24 151q-1 13 -1.5 35t-0.5 43q0 20 0.5 42t1.5 36q3 89 24 150
t57 98zM200 108q35 -38 100 -38q64 0 101 38q54 57 58 196q1 12 1.5 33.5t0.5 41.5t-0.5 41t-1.5 34q-4 139 -58 196q-19 19 -43.5 28.5t-57.5 9.5q-64 0 -100 -38q-54 -56 -59 -196q-1 -11 -1.5 -33t-0.5 -42t0.5 -42.5t1.5 -32.5q5 -140 59 -196zM276 811l-51 61l158 133
l51 -61z" />
    <glyph glyph-name="Ocircumflex" unicode="&#xd4;" 
d="M142 705q58 63 158 63q99 0 159 -63q37 -38 56 -98q21 -61 24 -150q1 -14 1.5 -36t0.5 -42q0 -21 -0.5 -43t-1.5 -35q-3 -88 -24 -151q-19 -58 -56 -98q-60 -62 -159 -62t-158 62q-37 40 -57 98q-21 63 -24 151q-1 13 -1.5 35t-0.5 43q0 20 0.5 42t1.5 36q3 89 24 150
t57 98zM200 108q35 -38 100 -38q64 0 101 38q54 57 58 196q1 12 1.5 33.5t0.5 41.5t-0.5 41t-1.5 34q-4 139 -58 196q-19 19 -43.5 28.5t-57.5 9.5q-64 0 -100 -38q-54 -56 -59 -196q-1 -11 -1.5 -33t-0.5 -42t0.5 -42.5t1.5 -32.5q5 -140 59 -196zM341 970l112 -94l-51 -61
q-22 18 -41 34l-34 28t-27 23q-11 -9 -28 -23l-34 -28q-19 -16 -40 -34l-52 61l112 94h83z" />
    <glyph glyph-name="Otilde" unicode="&#xd5;" 
d="M142 705q58 63 158 63q99 0 159 -63q37 -38 56 -98q21 -61 24 -150q1 -14 1.5 -36t0.5 -42q0 -21 -0.5 -43t-1.5 -35q-3 -88 -24 -151q-19 -58 -56 -98q-60 -62 -159 -62t-158 62q-37 40 -57 98q-21 63 -24 151q-1 13 -1.5 35t-0.5 43q0 20 0.5 42t1.5 36q3 89 24 150
t57 98zM200 108q35 -38 100 -38q64 0 101 38q54 57 58 196q1 12 1.5 33.5t0.5 41.5t-0.5 41t-1.5 34q-4 139 -58 196q-19 19 -43.5 28.5t-57.5 9.5q-64 0 -100 -38q-54 -56 -59 -196q-1 -11 -1.5 -33t-0.5 -42t0.5 -42.5t1.5 -32.5q5 -140 59 -196zM274 939q48 43 110 26
q20 -6 33 -14.5t16 -10.5l30 -26l-50 -61q-8 7 -15 12q-6 5 -11 8.5t-5 4.5q-2 2 -6 4q-3 2 -7 3t-9 3q-17 4 -33 -9q-48 -43 -110 -26q-20 6 -33 14.5t-16 10.5l-31 26l51 61q8 -7 15 -12q6 -5 10.5 -9t5.5 -4q2 -2 6 -4q3 -2 6.5 -3.5t8.5 -2.5q19 -4 34 9z" />
    <glyph glyph-name="Odieresis" unicode="&#xd6;" 
d="M142 705q58 63 158 63q99 0 159 -63q37 -38 56 -98q21 -61 24 -150q1 -14 1.5 -36t0.5 -42q0 -21 -0.5 -43t-1.5 -35q-3 -88 -24 -151q-19 -58 -56 -98q-60 -62 -159 -62t-158 62q-37 40 -57 98q-21 63 -24 151q-1 13 -1.5 35t-0.5 43q0 20 0.5 42t1.5 36q3 89 24 150
t57 98zM200 108q35 -38 100 -38q64 0 101 38q54 57 58 196q1 12 1.5 33.5t0.5 41.5t-0.5 41t-1.5 34q-4 139 -58 196q-19 19 -43.5 28.5t-57.5 9.5q-64 0 -100 -38q-54 -56 -59 -196q-1 -11 -1.5 -33t-0.5 -42t0.5 -42.5t1.5 -32.5q5 -140 59 -196zM249 860h-110v110h110
v-110zM460 860h-110v110h110v-110z" />
    <glyph glyph-name="multiply" unicode="&#xd7;" 
d="M565 473l-209 -209l209 -209l-56 -56l-209 209l-209 -209l-57 56l209 209l-209 209l57 57l209 -209l180 180l29 29l56 -57v0z" />
    <glyph glyph-name="Oslash" unicode="&#xd8;" 
d="M561 457q1 -13 1.5 -35.5t0.5 -42.5q0 -21 -0.5 -43t-1.5 -36q-3 -88 -27 -151q-23 -60 -62 -98q-64 -61 -172 -61q-50 0 -89 13l-33 -90l-75 27l37 102q-3 2 -5.5 4.5t-5.5 4.5q-39 38 -62 98q-12 32 -19 69.5t-9 81.5q0 14 -1 36t-1 43q0 20 1 42.5t1 35.5q5 91 28 152
q22 58 62 98q66 61 171 61q28 0 52 -4t46 -12l21 55l13 38l75 -28l-39 -107q2 -2 4 -3q39 -40 62 -98q24 -63 27 -152zM119 304q6 -122 51 -180l201 552q-30 12 -71 12q-75 0 -116 -40q-59 -56 -65 -194q0 -13 -1 -34t-1 -41t1 -41t1 -34zM482 304q0 13 0.5 34t0.5 41
t-0.5 41t-0.5 34q-6 112 -45 170l-199 -546q30 -8 62 -8q75 0 117 39q59 56 65 195z" />
    <glyph glyph-name="Ugrave" unicode="&#xd9;" 
d="M531 758v-442q0 -17 -0.5 -36t-1.5 -30q-6 -149 -77 -211q-18 -17 -38.5 -26.5t-40.5 -14.5t-39 -6.5t-35 -1.5t-35 1.5t-39 6.5t-40.5 14.5t-38.5 26.5q-71 62 -77 211q0 11 -0.5 30t-0.5 36v442h80v-442v-34.5t1 -28.5q5 -114 50 -155q17 -14 41 -21t59 -7q68 0 100 28
q45 41 50 155q1 19 1.5 35t0.5 28v442h80zM165 944l51 61l158 -133l-51 -61z" />
    <glyph glyph-name="Uacute" unicode="&#xda;" 
d="M531 758v-442q0 -17 -0.5 -36t-1.5 -30q-6 -149 -77 -211q-18 -17 -38.5 -26.5t-40.5 -14.5t-39 -6.5t-35 -1.5t-35 1.5t-39 6.5t-40.5 14.5t-38.5 26.5q-71 62 -77 211q0 11 -0.5 30t-0.5 36v442h80v-442v-34.5t1 -28.5q5 -114 50 -155q17 -14 41 -21t59 -7q68 0 100 28
q45 41 50 155q1 19 1.5 35t0.5 28v442h80zM276 811l-51 61l158 133l51 -61z" />
    <glyph glyph-name="Ucircumflex" unicode="&#xdb;" 
d="M531 758v-442q0 -17 -0.5 -36t-1.5 -30q-6 -149 -77 -211q-18 -17 -38.5 -26.5t-40.5 -14.5t-39 -6.5t-35 -1.5t-35 1.5t-39 6.5t-40.5 14.5t-38.5 26.5q-71 62 -77 211q0 11 -0.5 30t-0.5 36v442h80v-442v-34.5t1 -28.5q5 -114 50 -155q17 -14 41 -21t59 -7q68 0 100 28
q45 41 50 155q1 19 1.5 35t0.5 28v442h80zM340 970l112 -94l-51 -61q-22 18 -41 34l-34 28t-27 23q-11 -9 -28 -23l-34 -28q-19 -16 -40 -34l-52 61l112 94h83z" />
    <glyph glyph-name="Udieresis" unicode="&#xdc;" 
d="M531 758v-442q0 -17 -0.5 -36t-1.5 -30q-6 -149 -77 -211q-18 -17 -38.5 -26.5t-40.5 -14.5t-39 -6.5t-35 -1.5t-35 1.5t-39 6.5t-40.5 14.5t-38.5 26.5q-71 62 -77 211q0 11 -0.5 30t-0.5 36v442h80v-442v-34.5t1 -28.5q5 -114 50 -155q17 -14 41 -21t59 -7q68 0 100 28
q45 41 50 155q1 19 1.5 35t0.5 28v442h80zM249 860h-110v110h110v-110zM460 860h-110v110h110v-110z" />
    <glyph glyph-name="Yacute" unicode="&#xdd;" 
d="M576 758l-237 -454v-304h-80v304l-237 454h90q28 -54 57 -109t54.5 -103.5t45 -86.5t30.5 -59q11 22 31.5 61t46 87.5t54 102.5t55.5 107h90zM276 811l-51 61l158 133l51 -61z" />
    <glyph glyph-name="Thorn" unicode="&#xde;" 
d="M522 424q1 -5 1.5 -20t0.5 -31q0 -15 -1 -30.5t-1 -19.5q-6 -109 -66 -161q-53 -45 -140 -45h-160v-116h-80v757h80v-123q22 1 43.5 2.5t39.5 2t31 1t19 0.5q39 0 81 -7t77 -33q68 -51 75 -177zM442 327q1 5 1.5 19t0.5 27q0 14 -0.5 28t-1.5 19q-4 88 -43 117
q-17 13 -42.5 18.5t-67.5 5.5q-6 0 -19.5 -0.5t-31.5 -1t-39 -2t-43 -2.5v-358h160q58 0 87 26q36 30 39 104z" />
    <glyph glyph-name="germandbls" unicode="&#xdf;" 
d="M136 792q40 40 108 40q32 0 62 -10t58 -29q24 -17 44 -40.5t33 -49.5q23 -45 21 -89t-27 -78q-14 -17 -29.5 -31t-29.5 -26q-28 -23 -42.5 -40.5t-14.5 -49.5q0 -17 5.5 -25t14.5 -14q13 -8 31.5 -14t39.5 -12q26 -7 51 -15.5t47 -23.5q57 -39 57 -113q0 -88 -52 -134
q-45 -39 -120 -39q-37 0 -72 8t-72 19l-56 17l22 77l56 -17q35 -10 64.5 -17t57.5 -7q15 0 34 3.5t33 16.5q25 21 25 73q0 17 -5 28t-16.5 19t-30 14.5t-44.5 13.5q-25 7 -49.5 14.5t-45.5 21.5q-55 38 -55 106q0 31 8 54t20.5 41t28 31.5t29.5 25.5q13 11 24.5 21.5
t21.5 22.5q11 14 10.5 36t-12.5 46q-8 18 -21.5 33.5t-29.5 26.5q-36 25 -74 25q-35 0 -52 -17q-13 -12 -19.5 -36.5t-8.5 -59.5q0 -6 -0.5 -18t-0.5 -23v-598h-80v598v23.5t1 20.5q4 102 52 150z" />
    <glyph glyph-name="agrave" unicode="&#xe0;" 
d="M522 67q0 -1 4 -6t9 -10l12 -14l-61 -52l-25 31q-3 2 -15 22t-21 60q-7 -6 -13.5 -12t-14.5 -11q-43 -36 -79 -56q-51 -30 -86 -30q-69 0 -116 47t-47 129q0 50 16 80t33 45q44 38 114 38h184q0 86 -44 121q-36 27 -103 27q-16 0 -48.5 -2t-74.5 -6l-40 -4l-8 79l40 4
q45 5 79 7t52 2q96 0 151 -43q76 -58 76 -186v-145q0 -31 4 -52.5t9 -35.5q5 -17 13 -27zM346 136q23 18 41 35t29 28v49h-184q-14 0 -31 -3.5t-30 -14.5q-22 -21 -22 -65q0 -49 24 -73q14 -14 30 -18.5t29 -4.5q2 0 9 1.5t20.5 8.5t34 20t50.5 37zM165 732l51 61l158 -133
l-51 -61z" />
    <glyph glyph-name="aacute" unicode="&#xe1;" 
d="M522 67q0 -1 4 -6t9 -10l12 -14l-61 -52l-25 31q-3 2 -15 22t-21 60q-7 -6 -13.5 -12t-14.5 -11q-43 -36 -79 -56q-51 -30 -86 -30q-69 0 -116 47t-47 129q0 50 16 80t33 45q44 38 114 38h184q0 86 -44 121q-36 27 -103 27q-16 0 -48.5 -2t-74.5 -6l-40 -4l-8 79l40 4
q45 5 79 7t52 2q96 0 151 -43q76 -58 76 -186v-145q0 -31 4 -52.5t9 -35.5q5 -17 13 -27zM346 136q23 18 41 35t29 28v49h-184q-14 0 -31 -3.5t-30 -14.5q-22 -21 -22 -65q0 -49 24 -73q14 -14 30 -18.5t29 -4.5q2 0 9 1.5t20.5 8.5t34 20t50.5 37zM276 599l-51 61l158 133
l51 -61z" />
    <glyph glyph-name="acircumflex" unicode="&#xe2;" 
d="M522 67q0 -1 4 -6t9 -10l12 -14l-61 -52l-25 31q-3 2 -15 22t-21 60q-7 -6 -13.5 -12t-14.5 -11q-43 -36 -79 -56q-51 -30 -86 -30q-69 0 -116 47t-47 129q0 50 16 80t33 45q44 38 114 38h184q0 86 -44 121q-36 27 -103 27q-16 0 -48.5 -2t-74.5 -6l-40 -4l-8 79l40 4
q45 5 79 7t52 2q96 0 151 -43q76 -58 76 -186v-145q0 -31 4 -52.5t9 -35.5q5 -17 13 -27zM346 136q23 18 41 35t29 28v49h-184q-14 0 -31 -3.5t-30 -14.5q-22 -21 -22 -65q0 -49 24 -73q14 -14 30 -18.5t29 -4.5q2 0 9 1.5t20.5 8.5t34 20t50.5 37zM341 758l112 -94l-51 -61
q-22 18 -41 34l-34 28t-27 23q-11 -9 -28 -23l-34 -28q-19 -16 -40 -34l-52 61l112 94h83z" />
    <glyph glyph-name="atilde" unicode="&#xe3;" 
d="M522 67q0 -1 4 -6t9 -10l12 -14l-61 -52l-25 31q-3 2 -15 22t-21 60q-7 -6 -13.5 -12t-14.5 -11q-43 -36 -79 -56q-51 -30 -86 -30q-69 0 -116 47t-47 129q0 50 16 80t33 45q44 38 114 38h184q0 86 -44 121q-36 27 -103 27q-16 0 -48.5 -2t-74.5 -6l-40 -4l-8 79l40 4
q45 5 79 7t52 2q96 0 151 -43q76 -58 76 -186v-145q0 -31 4 -52.5t9 -35.5q5 -17 13 -27zM346 136q23 18 41 35t29 28v49h-184q-14 0 -31 -3.5t-30 -14.5q-22 -21 -22 -65q0 -49 24 -73q14 -14 30 -18.5t29 -4.5q2 0 9 1.5t20.5 8.5t34 20t50.5 37zM274 727q48 43 110 26
q20 -6 33 -14.5t16 -10.5l30 -26l-50 -61q-8 7 -15 12q-6 5 -11 8.5t-5 4.5q-2 2 -6 4q-3 2 -7 3t-9 3q-17 4 -33 -9q-48 -43 -110 -26q-20 6 -33 14.5t-16 10.5l-31 26l51 61q8 -7 15 -12q6 -5 10.5 -9t5.5 -4q2 -2 6 -4q3 -2 6.5 -3.5t8.5 -2.5q19 -4 34 9z" />
    <glyph glyph-name="adieresis" unicode="&#xe4;" 
d="M522 67q0 -1 4 -6t9 -10l12 -14l-61 -52l-25 31q-3 2 -15 22t-21 60q-7 -6 -13.5 -12t-14.5 -11q-43 -36 -79 -56q-51 -30 -86 -30q-69 0 -116 47t-47 129q0 50 16 80t33 45q44 38 114 38h184q0 86 -44 121q-36 27 -103 27q-16 0 -48.5 -2t-74.5 -6l-40 -4l-8 79l40 4
q45 5 79 7t52 2q96 0 151 -43q76 -58 76 -186v-145q0 -31 4 -52.5t9 -35.5q5 -17 13 -27zM346 136q23 18 41 35t29 28v49h-184q-14 0 -31 -3.5t-30 -14.5q-22 -21 -22 -65q0 -49 24 -73q14 -14 30 -18.5t29 -4.5q2 0 9 1.5t20.5 8.5t34 20t50.5 37zM249 648h-110v110h110
v-110zM460 648h-110v110h110v-110z" />
    <glyph glyph-name="aring" unicode="&#xe5;" 
d="M522 67q0 -1 4 -6t9 -10l12 -14l-61 -52l-25 31q-3 2 -15 22t-21 60q-7 -6 -13.5 -12t-14.5 -11q-43 -36 -79 -56q-51 -30 -86 -30q-69 0 -116 47t-47 129q0 50 16 80t33 45q44 38 114 38h184q0 86 -44 121q-36 27 -103 27q-16 0 -48.5 -2t-74.5 -6l-40 -4l-8 79l40 4
q45 5 79 7t52 2q96 0 151 -43q76 -58 76 -186v-145q0 -31 4 -52.5t9 -35.5q5 -17 13 -27zM346 136q23 18 41 35t29 28v49h-184q-14 0 -31 -3.5t-30 -14.5q-22 -21 -22 -65q0 -49 24 -73q14 -14 30 -18.5t29 -4.5q2 0 9 1.5t20.5 8.5t34 20t50.5 37zM182 706q0 24 9.5 45.5
t25.5 37.5t37.5 25.5t45.5 9.5t45.5 -9.5t37.5 -25.5t25 -37.5t9 -45.5t-9 -45.5t-25 -37.5t-37.5 -25.5t-45.5 -9.5t-45.5 9.5t-37.5 25.5t-25.5 37.5t-9.5 45.5zM242 706q0 -24 17 -41t41 -17q23 0 40 17t17 41t-17 41t-40 17q-24 0 -41 -17t-17 -41z" />
    <glyph glyph-name="ae" unicode="&#xe6;" 
d="M565 40l-38 -15q-35 -14 -69.5 -24.5t-69.5 -10.5q-63 0 -99 56q-5 8 -9 17t-8 20q0 -1 -1 -2q-36 -48 -63.5 -69.5t-52.5 -21.5q-55 0 -88 53q-27 46 -27 122q0 74 29 117q31 46 86 46h96q-1 58 -10 87t-18 41q-16 20 -46 20q-7 0 -24.5 -1.5t-46.5 -6.5l-39 -6l-13 79
l40 6q17 2 41.5 5.5t41.5 3.5q68 0 109 -50l6 -9q4 6 6 8q37 51 106 51q68 0 107 -51q42 -55 46 -177v-40v-40h-226v-21t1 -13q2 -55 9.5 -83.5t15.5 -41.5t15.5 -16t15.5 -3q25 0 52 8.5t58 20.5l37 15zM361 457q-9 -12 -18 -41t-11 -88h145q-2 59 -11.5 88t-18.5 41
q-15 19 -43 19q-15 0 -25 -4.5t-18 -14.5zM251 248h-96q-13 0 -20 -11q-5 -6 -10 -22.5t-5 -49.5q0 -47 10.5 -69.5t21.5 -24.5q4 2 18.5 15t41.5 50q13 17 23 32.5t16 24.5v55z" />
    <glyph glyph-name="ccedilla" unicode="&#xe7;" 
d="M152 512q53 44 148 44q29 0 59 -2.5t54 -5.5t39.5 -5.5t17.5 -2.5l39 -6l-13 -79l-40 7l-14.5 2t-37 5t-50 5t-54.5 2q-66 0 -99 -26q-42 -35 -47 -125q0 -9 -0.5 -23.5t-0.5 -28.5t0.5 -32t0.5 -26q3 -83 40 -118q27 -27 79 -27q47 0 94.5 9t101.5 22l39 10l19 -78
l-39 -10q-35 -8 -68.5 -15.5t-67.5 -11.5l-9 -35q21 -15 33 -37q16 -26 16 -58q0 -17 -4 -30q-11 -39 -42 -62.5t-69 -23.5q-8 0 -15.5 1t-15.5 3l-39 10l21 78l38 -11q15 -4 28 4t17 22q3 15 -4 27q-8 14 -22 17l-38 10l20 79q-80 2 -129 49q-60 58 -64 173q-1 11 -1 22v39
q0 15 0.5 30.5t0.5 25.5q6 128 78 183z" />
    <glyph glyph-name="egrave" unicode="&#xe8;" 
d="M152 512q53 44 148 44q94 0 148 -44q70 -55 78 -183v-41v-40h-373q0 -11 0.5 -20.5t0.5 -12.5q4 -84 40 -118q28 -27 79 -27q47 0 94.5 9t101.5 22l39 10l19 -78l-39 -9q-55 -14 -108.5 -24t-106.5 -10q-85 0 -134 49q-59 58 -65 172v10t-0.5 16t-0.5 19v18
q0 14 0.5 29.5t0.5 25.5q6 128 78 183zM201 450q-41 -32 -47 -122h291q-5 89 -47 122q-32 26 -98 26t-99 -26zM165 732l51 61l158 -133l-51 -61z" />
    <glyph glyph-name="eacute" unicode="&#xe9;" 
d="M152 512q53 44 148 44q94 0 148 -44q70 -55 78 -183v-41v-40h-373q0 -11 0.5 -20.5t0.5 -12.5q4 -84 40 -118q28 -27 79 -27q47 0 94.5 9t101.5 22l39 10l19 -78l-39 -9q-55 -14 -108.5 -24t-106.5 -10q-85 0 -134 49q-59 58 -65 172v10t-0.5 16t-0.5 19v18
q0 14 0.5 29.5t0.5 25.5q6 128 78 183zM201 450q-41 -32 -47 -122h291q-5 89 -47 122q-32 26 -98 26t-99 -26zM276 599l-51 61l158 133l51 -61z" />
    <glyph glyph-name="ecircumflex" unicode="&#xea;" 
d="M152 512q53 44 148 44q94 0 148 -44q70 -55 78 -183v-41v-40h-373q0 -11 0.5 -20.5t0.5 -12.5q4 -84 40 -118q28 -27 79 -27q47 0 94.5 9t101.5 22l39 10l19 -78l-39 -9q-55 -14 -108.5 -24t-106.5 -10q-85 0 -134 49q-59 58 -65 172v10t-0.5 16t-0.5 19v18
q0 14 0.5 29.5t0.5 25.5q6 128 78 183zM201 450q-41 -32 -47 -122h291q-5 89 -47 122q-32 26 -98 26t-99 -26zM341 758l112 -94l-51 -61q-22 18 -41 34l-34 28t-27 23q-11 -9 -28 -23l-34 -28q-19 -16 -40 -34l-52 61l112 94h83z" />
    <glyph glyph-name="edieresis" unicode="&#xeb;" 
d="M152 512q53 44 148 44q94 0 148 -44q70 -55 78 -183v-41v-40h-373q0 -11 0.5 -20.5t0.5 -12.5q4 -84 40 -118q28 -27 79 -27q47 0 94.5 9t101.5 22l39 10l19 -78l-39 -9q-55 -14 -108.5 -24t-106.5 -10q-85 0 -134 49q-59 58 -65 172v10t-0.5 16t-0.5 19v18
q0 14 0.5 29.5t0.5 25.5q6 128 78 183zM201 450q-41 -32 -47 -122h291q-5 89 -47 122q-32 26 -98 26t-99 -26zM249 648h-110v110h110v-110zM460 648h-110v110h110v-110z" />
    <glyph glyph-name="igrave" unicode="&#xec;" 
d="M512 80v-80h-392v80h172v386h-204v80h284v-466h140zM165 732l51 61l158 -133l-51 -61z" />
    <glyph glyph-name="iacute" unicode="&#xed;" 
d="M512 80v-80h-392v80h172v386h-204v80h284v-466h140zM276 599l-51 61l158 133l51 -61z" />
    <glyph glyph-name="icircumflex" unicode="&#xee;" 
d="M512 80v-80h-392v80h172v386h-204v80h284v-466h140zM341 758l112 -94l-51 -61q-22 18 -41 34l-34 28t-27 23q-11 -9 -28 -23l-34 -28q-19 -16 -40 -34l-52 61l112 94h83z" />
    <glyph glyph-name="idieresis" unicode="&#xef;" 
d="M512 80v-80h-392v80h172v386h-204v80h284v-466h140zM249 648h-110v110h110v-110zM460 648h-110v110h110v-110z" />
    <glyph glyph-name="eth" unicode="&#xf0;" 
d="M527 272q0 -15 -0.5 -30.5t-0.5 -25.5q-6 -127 -77 -184q-54 -44 -149 -44q-94 0 -148 44q-72 57 -78 184q0 10 -0.5 25.5t-0.5 30.5q0 14 0.5 29.5t0.5 25.5q6 126 78 183q54 44 148 44q54 0 93 -16q-10 25 -21 49.5t-23 50.5q-5 10 -10.5 19.5t-10.5 18.5l-118 -55
l-34 73l111 51q-17 27 -28 41.5t-11 15.5l-25 31l63 50l25 -32q1 -2 14.5 -20.5t34.5 -50.5l84 39l37 17l33 -73l-113 -53q5 -8 9 -16.5t9 -17.5q47 -94 74 -184q17 -54 25 -106.5t9 -103.5v-2v-8zM398 95q43 34 48 125q1 9 1 23.5v28.5q0 121 -48 168q-34 34 -99 34
q-66 0 -98 -26q-43 -34 -48 -125q0 -9 -0.5 -23.5t-0.5 -27.5q0 -14 0.5 -28.5t0.5 -23.5q5 -91 48 -125q33 -27 98 -27t98 27z" />
    <glyph glyph-name="ntilde" unicode="&#xf1;" 
d="M465 503q50 -55 50 -156v-347h-80v347q0 70 -30 102q-24 27 -71 27q-4 0 -12.5 -2t-21.5 -8.5t-31.5 -19.5t-42.5 -35q-19 -18 -34.5 -34.5t-24.5 -27.5v-26v-323h-80v363q0 31 -4 53.5t-9 36.5q-6 17 -13 28q-1 1 -4 5.5t-8 10.5t-12 15l62 50l25 -31q2 -3 13 -21.5
t20 -54.5l14 14q93 87 163 87q83 0 131 -53zM274 727q48 43 110 26q20 -6 33 -14.5t16 -10.5l30 -26l-50 -61q-8 7 -15 12q-6 5 -11 8.5t-5 4.5q-2 2 -6 4q-3 2 -7 3t-9 3q-17 4 -33 -9q-48 -43 -110 -26q-20 6 -33 14.5t-16 10.5l-31 26l51 61q8 -7 15 -12q6 -5 10.5 -9
t5.5 -4q2 -2 6 -4q3 -2 6.5 -3.5t8.5 -2.5q19 -4 34 9z" />
    <glyph glyph-name="ograve" unicode="&#xf2;" 
d="M151 512q54 44 149 44q94 0 148 -44q71 -56 77 -183q1 -10 1.5 -25.5t0.5 -29.5q0 -15 -0.5 -30.5t-1.5 -25.5q-6 -127 -77 -184q-54 -44 -148 -44q-95 0 -149 44q-71 57 -77 184q-1 10 -1.5 25.5t-0.5 30.5q0 14 0.5 30t1.5 25q6 127 77 183zM201 97q34 -27 99 -27
t98 27q43 34 48 125q0 9 0.5 23.5t0.5 28.5q0 13 -0.5 27.5t-0.5 23.5q-5 91 -48 125q-32 26 -98 26t-99 -26q-42 -35 -47 -125q0 -7 -1 -22t-1 -29t1 -29t1 -23q5 -90 47 -125zM165 732l51 61l158 -133l-51 -61z" />
    <glyph glyph-name="oacute" unicode="&#xf3;" 
d="M151 512q54 44 149 44q94 0 148 -44q71 -56 77 -183q1 -10 1.5 -25.5t0.5 -29.5q0 -15 -0.5 -30.5t-1.5 -25.5q-6 -127 -77 -184q-54 -44 -148 -44q-95 0 -149 44q-71 57 -77 184q-1 10 -1.5 25.5t-0.5 30.5q0 14 0.5 30t1.5 25q6 127 77 183zM201 97q34 -27 99 -27
t98 27q43 34 48 125q0 9 0.5 23.5t0.5 28.5q0 13 -0.5 27.5t-0.5 23.5q-5 91 -48 125q-32 26 -98 26t-99 -26q-42 -35 -47 -125q0 -7 -1 -22t-1 -29t1 -29t1 -23q5 -90 47 -125zM276 599l-51 61l158 133l51 -61z" />
    <glyph glyph-name="ocircumflex" unicode="&#xf4;" 
d="M151 512q54 44 149 44q94 0 148 -44q71 -56 77 -183q1 -10 1.5 -25.5t0.5 -29.5q0 -15 -0.5 -30.5t-1.5 -25.5q-6 -127 -77 -184q-54 -44 -148 -44q-95 0 -149 44q-71 57 -77 184q-1 10 -1.5 25.5t-0.5 30.5q0 14 0.5 30t1.5 25q6 127 77 183zM201 97q34 -27 99 -27
t98 27q43 34 48 125q0 9 0.5 23.5t0.5 28.5q0 13 -0.5 27.5t-0.5 23.5q-5 91 -48 125q-32 26 -98 26t-99 -26q-42 -35 -47 -125q0 -7 -1 -22t-1 -29t1 -29t1 -23q5 -90 47 -125zM341 758l112 -94l-51 -61q-22 18 -41 34l-34 28t-27 23q-11 -9 -28 -23l-34 -28
q-19 -16 -40 -34l-52 61l112 94h83z" />
    <glyph glyph-name="otilde" unicode="&#xf5;" 
d="M151 512q54 44 149 44q94 0 148 -44q71 -56 77 -183q1 -10 1.5 -25.5t0.5 -29.5q0 -15 -0.5 -30.5t-1.5 -25.5q-6 -127 -77 -184q-54 -44 -148 -44q-95 0 -149 44q-71 57 -77 184q-1 10 -1.5 25.5t-0.5 30.5q0 14 0.5 30t1.5 25q6 127 77 183zM201 97q34 -27 99 -27
t98 27q43 34 48 125q0 9 0.5 23.5t0.5 28.5q0 13 -0.5 27.5t-0.5 23.5q-5 91 -48 125q-32 26 -98 26t-99 -26q-42 -35 -47 -125q0 -7 -1 -22t-1 -29t1 -29t1 -23q5 -90 47 -125zM274 727q48 43 110 26q20 -6 33 -14.5t16 -10.5l30 -26l-50 -61q-8 7 -15 12q-6 5 -11 8.5
t-5 4.5q-2 2 -6 4q-3 2 -7 3t-9 3q-17 4 -33 -9q-48 -43 -110 -26q-20 6 -33 14.5t-16 10.5l-31 26l51 61q8 -7 15 -12q6 -5 10.5 -9t5.5 -4q2 -2 6 -4q3 -2 6.5 -3.5t8.5 -2.5q19 -4 34 9z" />
    <glyph glyph-name="odieresis" unicode="&#xf6;" 
d="M151 512q54 44 149 44q94 0 148 -44q71 -56 77 -183q1 -10 1.5 -25.5t0.5 -29.5q0 -15 -0.5 -30.5t-1.5 -25.5q-6 -127 -77 -184q-54 -44 -148 -44q-95 0 -149 44q-71 57 -77 184q-1 10 -1.5 25.5t-0.5 30.5q0 14 0.5 30t1.5 25q6 127 77 183zM201 97q34 -27 99 -27
t98 27q43 34 48 125q0 9 0.5 23.5t0.5 28.5q0 13 -0.5 27.5t-0.5 23.5q-5 91 -48 125q-32 26 -98 26t-99 -26q-42 -35 -47 -125q0 -7 -1 -22t-1 -29t1 -29t1 -23q5 -90 47 -125zM249 648h-110v110h110v-110zM460 648h-110v110h110v-110z" />
    <glyph glyph-name="divide" unicode="&#xf7;" 
d="M242 420v110h110v-110h-110zM242 0v110h110v-110h-110zM524 304h40v-80h-529v80h489z" />
    <glyph glyph-name="oslash" unicode="&#xf8;" 
d="M526 329q0 -10 0.5 -25.5t0.5 -30.5q0 -14 -0.5 -29.5t-0.5 -25.5q-6 -127 -77 -184q-54 -44 -149 -44q-16 0 -30.5 1t-28.5 4l-25 -70l-75 28l26 70q-5 3 -8.5 5.5t-6.5 5.5q-72 57 -78 184q0 9 -0.5 25t-0.5 30q0 15 0.5 30.5t0.5 25.5q6 128 78 183q54 44 148 44
q16 0 30.5 -1.5t28.5 -3.5l11 32l14 37l75 -27l-25 -70q7 -5 14 -11q72 -55 78 -183zM154 222q4 -83 41 -120l136 372q-8 1 -15.5 1.5t-15.5 0.5q-66 0 -98 -26q-43 -34 -48 -125q0 -8 -0.5 -23t-0.5 -29t0.5 -29t0.5 -22zM446 222q0 9 0.5 23.5t0.5 27.5q0 14 -0.5 28.5
t-0.5 23.5q-5 82 -41 119l-136 -373q8 -1 15.5 -1h15.5q64 0 98 26q43 34 48 126z" />
    <glyph glyph-name="ugrave" unicode="&#xf9;" 
d="M538 65q0 -1 4 -6t9 -10q5 -7 12 -15l-62 -50l-25 31q-2 2 -12 17.5t-18 46.5l-10 -8l-10 -8q-92 -73 -161 -73q-83 0 -130 52q-50 56 -50 157v347h80v-347q0 -71 29 -103q24 -26 71 -26q20 0 48.5 14.5t61.5 40.5q19 14 33.5 27.5t23.5 22.5v47v324h80v-364q0 -31 4 -53
t9 -36q5 -17 13 -28zM165 732l51 61l158 -133l-51 -61z" />
    <glyph glyph-name="uacute" unicode="&#xfa;" 
d="M538 65q0 -1 4 -6t9 -10q5 -7 12 -15l-62 -50l-25 31q-2 2 -12 17.5t-18 46.5l-10 -8l-10 -8q-92 -73 -161 -73q-83 0 -130 52q-50 56 -50 157v347h80v-347q0 -71 29 -103q24 -26 71 -26q20 0 48.5 14.5t61.5 40.5q19 14 33.5 27.5t23.5 22.5v47v324h80v-364q0 -31 4 -53
t9 -36q5 -17 13 -28zM276 599l-51 61l158 133l51 -61z" />
    <glyph glyph-name="ucircumflex" unicode="&#xfb;" 
d="M538 65q0 -1 4 -6t9 -10q5 -7 12 -15l-62 -50l-25 31q-2 2 -12 17.5t-18 46.5l-10 -8l-10 -8q-92 -73 -161 -73q-83 0 -130 52q-50 56 -50 157v347h80v-347q0 -71 29 -103q24 -26 71 -26q20 0 48.5 14.5t61.5 40.5q19 14 33.5 27.5t23.5 22.5v47v324h80v-364q0 -31 4 -53
t9 -36q5 -17 13 -28zM341 758l112 -94l-51 -61q-22 18 -41 34l-34 28t-27 23q-11 -9 -28 -23l-34 -28q-19 -16 -40 -34l-52 61l112 94h83z" />
    <glyph glyph-name="udieresis" unicode="&#xfc;" 
d="M538 65q0 -1 4 -6t9 -10q5 -7 12 -15l-62 -50l-25 31q-2 2 -12 17.5t-18 46.5l-10 -8l-10 -8q-92 -73 -161 -73q-83 0 -130 52q-50 56 -50 157v347h80v-347q0 -71 29 -103q24 -26 71 -26q20 0 48.5 14.5t61.5 40.5q19 14 33.5 27.5t23.5 22.5v47v324h80v-364q0 -31 4 -53
t9 -36q5 -17 13 -28zM249 648h-110v110h110v-110zM460 648h-110v110h110v-110z" />
    <glyph glyph-name="yacute" unicode="&#xfd;" 
d="M231 -212l74 212h-38l-190 546h84l168 -479l167 479h85l-265 -758h-85zM276 599l-51 61l158 133l51 -61z" />
    <glyph glyph-name="thorn" unicode="&#xfe;" 
d="M525 321q1 -5 1.5 -22t0.5 -34t-0.5 -34t-1.5 -21q-6 -117 -74 -174q-59 -48 -156 -48q-33 0 -62.5 4t-55.5 9v-279h-80v1098h80v-270q32 2 54 3t33 1q44 0 91 -7t85 -35q78 -55 85 -191zM446 214q0 5 0.5 21t0.5 30t-0.5 30t-0.5 21q-2 27 -6.5 49t-12.5 39
q-12 28 -33 43q-20 14 -50.5 20.5t-79.5 6.5q-11 0 -33 -1t-54 -4v-387q1 0 1.5 -0.5t1.5 -0.5h1q27 -5 55 -9t59 -4q69 0 105 30q20 17 31.5 46t14.5 70z" />
    <glyph glyph-name="ydieresis" unicode="&#xff;" 
d="M249 648h-110v110h110v-110zM460 648h-110v110h110v-110zM202 -212l74 212h-38l-190 546h84l168 -479l167 479h85l-265 -758h-85z" />
    <glyph glyph-name="dotlessi" unicode="&#x131;" 
d="M512 80v-80h-392v80h172v386h-204v80h284v-466h140z" />
    <glyph glyph-name="OE" unicode="&#x152;" 
d="M368 678v-249h163v-80h-163v-269h203v-80h-238q-10 -2 -31 -6t-42 -4q-23 0 -59 9t-70.5 41t-60.5 94t-30 167q-1 13 -1.5 35t-0.5 43q0 20 0.5 42t1.5 36q3 70 16 120.5t32 85t42.5 55t47 32t45 15t37.5 3.5q21 0 42 -4t31 -6h238v-80h-203zM260 70q7 0 14 0.5t14 1.5
v613q-14 3 -28 3q-49 0 -83 -37q-26 -29 -40 -78.5t-17 -118.5q0 -11 -1 -33t-1 -42t0.5 -41t1.5 -34q3 -69 17 -118.5t40 -78.5q33 -37 83 -37z" />
    <glyph glyph-name="oe" unicode="&#x153;" 
d="M575 40l-37 -15q-35 -14 -70 -24.5t-70 -10.5q-63 0 -98 56q-1 1 -1 2q-2 -2 -2.5 -3.5t-2.5 -3.5q-39 -51 -107 -51t-107 51q-42 57 -45 178q-1 9 -1 24.5v29.5v30.5t1 24.5q3 122 46 177q37 51 106 51q68 0 107 -51q2 -2 3.5 -4.5t3.5 -5.5q3 6 7 10q37 51 106 51
t107 -51q43 -55 46 -177v-40v-40h-226q0 -11 0.5 -21t0.5 -13q2 -55 9.5 -83.5t15.5 -41.5t15.5 -16t15.5 -3q25 0 52 8.5t58 20.5l37 15zM371 457q-9 -12 -18 -41t-11 -88h145q-2 59 -11 88t-19 41q-8 10 -17.5 14.5t-25.5 4.5q-15 0 -25 -4.5t-18 -14.5zM230 89
q9 13 18.5 42.5t11.5 89.5q1 16 1 29v23v24t-1 29q-2 60 -11 89.5t-19 41.5q-15 19 -43 19q-15 0 -25 -4.5t-18 -14.5q-9 -12 -18 -41.5t-11 -89.5q-1 -8 -1 -23.5v-29.5v-29t1 -23q2 -60 11 -89.5t18 -42.5q15 -19 43 -19q29 0 43 19z" />
    <glyph glyph-name="Scaron" unicode="&#x160;" 
d="M73 111l14 -4q57 -15 107 -26t98 -11q86 0 127 30q48 34 48 125q0 34 -13 58q-5 10 -13 17.5t-19 14.5q-25 14 -58.5 22t-68.5 15q-39 7 -77 16t-70 27q-80 47 -80 147q0 125 76 182q30 23 70 33.5t96 10.5q61 0 114.5 -12t104.5 -26l-22 -78q-47 14 -95.5 25t-101.5 11
q-81 0 -118 -28q-44 -32 -44 -118q0 -36 12.5 -52.5t27.5 -24.5q23 -14 54.5 -21t66.5 -14q41 -8 80.5 -17.5t73.5 -29.5q84 -50 84 -158q0 -131 -80 -190q-32 -23 -74 -34t-101 -11q-57 0 -112 12t-113 27l-14 4zM258 864l-112 94l51 61q22 -18 41 -34q17 -14 33.5 -28.5
t27.5 -22.5q11 8 27.5 22.5t33.5 28.5q19 16 41 34l52 -61l-112 -94h-83z" />
    <glyph glyph-name="scaron" unicode="&#x161;" 
d="M172 522q50 34 139 34q50 0 94 -8t86 -18l17 -4l-18 -78l-17 4q-38 9 -78.5 16.5t-83.5 7.5q-65 0 -96 -21q-10 -7 -20.5 -20.5t-10.5 -43.5q0 -8 4.5 -18t24.5 -21q19 -10 45.5 -17t54.5 -14q33 -8 66 -17t60 -24q33 -17 52 -44q22 -31 22 -73q0 -91 -70 -137
q-56 -36 -147 -36q-47 0 -92.5 8t-93.5 19l-23 5l16 78l24 -5q47 -10 88 -17.5t81 -7.5q68 0 103 23q34 22 34 70q0 14 -6 25t-26 22t-48.5 18.5t-57.5 14.5q-32 8 -63 16.5t-57 22.5q-33 17 -49 41q-22 29 -22 68q0 88 68 131zM258 652l-112 94l51 61q22 -18 41 -34
q17 -14 33.5 -28.5t27.5 -22.5q11 8 27.5 22.5t33.5 28.5q19 16 41 34l52 -61l-112 -94h-83z" />
    <glyph glyph-name="Ydieresis" unicode="&#x178;" 
d="M577 758l-237 -454v-304h-80v304l-237 454h90q28 -54 57 -109t54.5 -103.5t45 -86.5t30.5 -59q11 22 31.5 61t46 87.5t54 102.5t55.5 107h90zM249 860h-110v110h110v-110zM460 860h-110v110h110v-110z" />
    <glyph glyph-name="Zcaron" unicode="&#x17d;" 
d="M42 58q24 37 60 92t76.5 117t82.5 126t79 120.5t65.5 100t42.5 64.5h-406v80h516v-58q-24 -37 -60 -92t-77 -117t-83 -126t-79 -120.5t-65.5 -100.5t-41.5 -64h406v-80h-516v58zM258 864l-112 94l51 61q22 -18 41 -34q17 -14 33.5 -28.5t27.5 -22.5q11 8 27.5 22.5
t33.5 28.5q19 16 41 34l52 -61l-112 -94h-83z" />
    <glyph glyph-name="zcaron" unicode="&#x17e;" 
d="M518 498q-19 -26 -46 -61.5t-57 -76t-61.5 -82.5t-59.5 -79.5t-51.5 -69t-37.5 -49.5h313v-80h-437v48q19 26 46 61.5t57 76t61.5 82.5t60 79.5t51.5 68.5t37 50h-313v80h437v-48zM258 652l-112 94l51 61q22 -18 41 -34q17 -14 33.5 -28.5t27.5 -22.5q11 8 27.5 22.5
t33.5 28.5q19 16 41 34l52 -61l-112 -94h-83z" />
    <glyph glyph-name="florin" unicode="&#x192;" 
d="M573 758l-7 -80l-40 4q-36 4 -58 5t-31 1q-45 0 -65 -16q-28 -22 -31 -84q0 -5 -0.5 -16t-0.5 -21v-123h136v-80h-136v-273q0 -11 -0.5 -22.5t-0.5 -18.5q-4 -97 -61 -143q-43 -34 -115 -34q-14 0 -39 1.5t-58 5.5l-40 3l8 80l40 -4q70 -6 89 -6q43 0 65 17q28 22 31 84
q0 5 0.5 15.5t0.5 21.5v273h-98v80h98v123q0 11 0.5 22.5t0.5 18.5q4 96 61 142q43 34 115 34q14 0 39 -1.5t58 -4.5z" />
    <glyph glyph-name="circumflex" unicode="&#x2c6;" 
d="M341 758l112 -94l-51 -61q-22 18 -41 34l-34 28t-27 23q-11 -9 -28 -23l-34 -28q-19 -16 -40 -34l-52 61l112 94h83z" />
    <glyph glyph-name="tilde" unicode="&#x2dc;" 
d="M274 727q48 43 110 26q20 -6 33 -14.5t16 -10.5l30 -26l-50 -61q-8 7 -15 12q-6 5 -11 8.5t-5 4.5q-2 2 -6 4q-3 2 -7 3t-9 3q-17 4 -33 -9q-48 -43 -110 -26q-20 6 -33 14.5t-16 10.5l-31 26l51 61q8 -7 15 -12q6 -5 10.5 -9t5.5 -4q2 -2 6 -4q3 -2 6.5 -3.5t8.5 -2.5
q19 -4 34 9z" />
    <glyph glyph-name="endash" unicode="&#x2013;" 
d="M457 306h40v-80h-394v80h354v0z" />
    <glyph glyph-name="emdash" unicode="&#x2014;" 
d="M531 306h40v-80h-542v80h502v0z" />
    <glyph glyph-name="quoteleft" unicode="&#x2018;" 
d="M300 751l88 -208l-73 -31l-104 245l73 31z" />
    <glyph glyph-name="quoteright" unicode="&#x2019;" 
d="M315 788l73 -31l-104 -245l-73 31l88 208z" />
    <glyph glyph-name="quotesinglbase" unicode="&#x201a;" 
d="M293 43l16 36l74 -31l-93 -219l-74 32l77 182v0z" />
    <glyph glyph-name="quotedblleft" unicode="&#x201c;" 
d="M382 751l88 -208l-73 -31l-104 245l73 31zM218 751l88 -208l-74 -31l-103 245l73 31z" />
    <glyph glyph-name="quotedblright" unicode="&#x201d;" 
d="M233 788l73 -31l-104 -245l-73 31l88 208zM381 751l16 37l73 -31l-103 -245l-74 31z" />
    <glyph glyph-name="quotedblbase" unicode="&#x201e;" 
d="M221 79l73 -31l-104 -245l-73 31l88 208zM409 79l73 -31l-103 -245l-74 31l88 208z" />
    <glyph glyph-name="dagger" unicode="&#x2020;" 
d="M529 504v-80h-189v-566h-80v566h-189v80h189v254h80v-254h189v0z" />
    <glyph glyph-name="daggerdbl" unicode="&#x2021;" 
d="M529 424h-189v-232h189v-80h-189v-254h-80v254h-189v80h189v232h-189v80h189v254h80v-254h189v-80v0z" />
    <glyph glyph-name="bullet" unicode="&#x2022;" 
d="M179 309q0 25 9.5 47t26 38.5t38.5 26t47 9.5t47 -9.5t38.5 -26t26 -38.5t9.5 -47t-9.5 -47t-26 -38.5t-38.5 -26t-47 -9.5t-47 9.5t-38.5 26t-26 38.5t-9.5 47z" />
    <glyph glyph-name="ellipsis" unicode="&#x2026;" 
d="M41 89h110v-110h-110v110zM245 89h110v-110h-110v110zM449 89h110v-110h-110v110z" />
    <glyph glyph-name="perthousand" unicode="&#x2030;" 
d="M599 220q1 -7 1 -17.5v-21.5v-20.5t-1 -17.5q-1 -44 -9 -73.5t-23 -48.5q-9 -12 -20 -18t-20.5 -9t-17.5 -3.5t-12 -0.5q-5 0 -13 0.5t-17.5 3.5t-20.5 9t-20 18q-2 2 -3 4q-1 -2 -3 -4q-9 -12 -20 -18t-20.5 -9t-17.5 -3.5t-12 -0.5t-12 0.5t-18 3.5t-21 9t-20 18
q-29 36 -32 122q0 7 -0.5 17.5t-0.5 20.5q0 11 0.5 21.5t0.5 17.5q3 86 32 122q9 12 19 18t19 9t16.5 3.5t11.5 0.5t13 -0.5t19.5 -3.5t22 -9t20.5 -18q1 -1 1.5 -2t1.5 -2q1 1 1.5 2t1.5 2q19 23 38 27t28 4q4 0 13 -0.5t19.5 -3.5t22 -9t20.5 -18q15 -19 23 -48.5t9 -73.5
zM393 181v37q-2 43 -8 61.5t-11 24.5q-4 5 -8.5 7t-15.5 2t-16 -2t-8 -7q-5 -6 -11 -24.5t-8 -61.5q0 -5 -0.5 -15.5t-0.5 -21.5q0 -10 0.5 -20.5t0.5 -15.5q2 -43 8 -61.5t11 -24.5q3 -5 8 -7t16 -2t15.5 2t8.5 7q5 6 11 24.5t8 61.5v36zM539 145q1 5 1 15.5v20.5v21.5
t-1 15.5q-1 43 -7 61.5t-11 24.5q-4 5 -8.5 7t-15.5 2t-16 -2t-8 -7q-5 -6 -11.5 -24.5t-7.5 -61.5q0 -5 -0.5 -15.5t-0.5 -21.5q0 -10 0.5 -20.5t0.5 -15.5q1 -43 7.5 -61.5t11.5 -24.5q3 -5 8 -7t16 -2t15.5 2t8.5 7q5 6 11 24.5t7 61.5zM32 737q10 12 20.5 18t20.5 9
t18 3.5t12 0.5t12 -0.5t18 -3.5t21 -9t20 -18q29 -36 32 -122q0 -7 0.5 -17.5t0.5 -21.5q0 -10 -0.5 -20.5t-0.5 -17.5q-3 -86 -32 -122q-9 -12 -20 -18t-21 -9t-18 -3.5t-12 -0.5t-12 0.5t-18 3.5t-20.5 9t-19.5 18q-30 36 -33 122v38v39q3 86 32 122zM79 454q4 -5 8.5 -7
t15.5 -2t15.5 2t8.5 7q5 6 11 24.5t8 61.5q0 5 0.5 15.5t0.5 20.5t-0.5 20.5t-0.5 16.5q-2 43 -8 61.5t-11 24.5q-4 5 -8.5 7t-15.5 2t-15.5 -2t-8.5 -7q-5 -6 -11 -24.5t-8 -61.5v-37v-36q2 -43 8 -61.5t11 -24.5zM417 765l49 -28l-418 -725l-49 28l404 701z" />
    <glyph glyph-name="guilsinglleft" unicode="&#x2039;" 
d="M362 469l63 -49q-35 -44 -65 -83q-26 -33 -50.5 -65t-35.5 -45q4 -7 12.5 -19t19 -27t22 -32t23.5 -33q27 -39 58 -83l-65 -46l-170 242l163 209z" />
    <glyph glyph-name="guilsinglright" unicode="&#x203a;" 
d="M425 229l-170 -242l-65 46q31 44 58 83q23 33 45 65t32 46q-11 13 -35.5 45t-50.5 65q-30 39 -65 83l63 49l25 -31z" />
    <glyph glyph-name="Euro" unicode="&#x20ac;" 
d="M573 81l7 -80l-40 -3q-48 -5 -87 -7t-62 -2q-128 0 -202 59q-47 37 -73 99q-14 32 -22 70t-10 83q0 7 -0.5 17.5t-1.5 21.5h-62v80h62q1 11 1.5 21t0.5 17q5 92 32 153q26 62 73 99q74 59 202 59q22 0 60 -2.5t89 -6.5l40 -4l-7 -80l-40 4q-48 4 -85 6.5t-57 2.5
q-100 0 -152 -42q-33 -26 -50 -67q-11 -26 -17 -57t-8 -69q-1 -6 -1 -15t-1 -19h353v-80h-353q1 -11 1 -19.5t1 -15.5q2 -38 8 -69t17 -57q17 -41 50 -67q52 -42 152 -42q21 0 58.5 2t83.5 7z" />
    <glyph glyph-name="trademark" unicode="&#x2122;" 
d="M264 711h-63v-192h-47v192h-64v47h174v-47zM510 758v-239h-46v145l-22 -38t-20 -36q-11 -19 -21 -37q-13 19 -24 37q-10 16 -21 35t-19 36v-142h-47v239h53q7 -16 15.5 -34.5t16.5 -36t14.5 -32.5t10.5 -22l11 23q6 12 12.5 26t12.5 28t12 26.5t10 21.5h52z" />
  </font>
</defs>
</svg>
